<svg xmlns="http://www.w3.org/2000/svg" xmlns:xlink="http://www.w3.org/1999/xlink" xmlns:lucid="lucid" width="1345" height="1298"><g transform="translate(-280 20)" lucid:page-tab-id="0_0"><path d="M0 0h1760v1360H0z" fill="#fff"/><path d="M460 0h770v60H460z" stroke="#000" stroke-width="2" fill="#fff"/><use xlink:href="#a" transform="matrix(1,0,0,1,464.99999999999994,5) translate(71.5 30.333333333333336)"/><use xlink:href="#b" transform="matrix(1,0,0,1,464.99999999999994,5) translate(204.61111111111111 30.333333333333336)"/><use xlink:href="#c" transform="matrix(1,0,0,1,464.99999999999994,5) translate(290.31481481481484 30.333333333333336)"/><use xlink:href="#d" transform="matrix(1,0,0,1,464.99999999999994,5) translate(353.8703703703704 30.333333333333336)"/><use xlink:href="#e" transform="matrix(1,0,0,1,464.99999999999994,5) translate(442.53703703703707 30.333333333333336)"/><use xlink:href="#f" transform="matrix(1,0,0,1,464.99999999999994,5) translate(488.3888888888889 30.333333333333336)"/><use xlink:href="#g" transform="matrix(1,0,0,1,464.99999999999994,5) translate(571.2777777777778 30.333333333333336)"/><path d="M845 80l100 80-100 80-100-80z" stroke="#000" stroke-width="2" fill="#c1e4f7"/><use xlink:href="#h" transform="matrix(1,0,0,1,750,85) translate(47.25 67.8)"/><use xlink:href="#i" transform="matrix(1,0,0,1,750,85) translate(132.25 67.8)"/><use xlink:href="#j" transform="matrix(1,0,0,1,750,85) translate(20.099999999999994 89.4)"/><use xlink:href="#k" transform="matrix(1,0,0,1,750,85) translate(103 89.4)"/><path d="M1002.5 300l102.5 76.87-102.5 76.88L900 376.87z" stroke="#000" stroke-width="2" fill="#c1e4f7"/><use xlink:href="#l" transform="matrix(1,0,0,1,905,304.99999999999994) translate(51.349999999999994 64.8)"/><use xlink:href="#m" transform="matrix(1,0,0,1,905,304.99999999999994) translate(133.15 64.8)"/><use xlink:href="#n" transform="matrix(1,0,0,1,905,304.99999999999994) translate(59.4 86.4)"/><path d="M526.67 520l106.66 80-106.66 80L420 600z" stroke="#000" stroke-width="2" fill="#c1e4f7"/><use xlink:href="#o" transform="matrix(1,0,0,1,424.99999999999994,525) translate(43.425 57)"/><use xlink:href="#p" transform="matrix(1,0,0,1,424.99999999999994,525) translate(114.625 57)"/><use xlink:href="#q" transform="matrix(1,0,0,1,424.99999999999994,525) translate(154.625 57)"/><use xlink:href="#r" transform="matrix(1,0,0,1,424.99999999999994,525) translate(30.69999999999999 78.60000000000001)"/><use xlink:href="#s" transform="matrix(1,0,0,1,424.99999999999994,525) translate(79 100.20000000000002)"/><use xlink:href="#t" transform="matrix(1,0,0,1,424.99999999999994,525) translate(105 100.20000000000002)"/><path d="M1246.67 520l106.66 80-106.66 80L1140 600z" stroke="#000" stroke-width="2" fill="#c1e4f7"/><use xlink:href="#u" transform="matrix(1,0,0,1,1145,525) translate(48.825 46.19999999999999)"/><use xlink:href="#v" transform="matrix(1,0,0,1,1145,525) translate(91.67500000000001 46.19999999999999)"/><use xlink:href="#i" transform="matrix(1,0,0,1,1145,525) translate(144.675 46.19999999999999)"/><use xlink:href="#w" transform="matrix(1,0,0,1,1145,525) translate(69.025 67.8)"/><use xlink:href="#x" transform="matrix(1,0,0,1,1145,525) translate(58.125 89.4)"/><use xlink:href="#y" transform="matrix(1,0,0,1,1145,525) translate(85.025 89.4)"/><use xlink:href="#z" transform="matrix(1,0,0,1,1145,525) translate(110.025 89.4)"/><use xlink:href="#A" transform="matrix(1,0,0,1,1145,525) translate(67.525 111)"/><use xlink:href="#B" transform="matrix(1,0,0,1,1145,525) translate(126.47500000000001 111)"/><path d="M1002.5 744.38L1105 816.3l-102.5 71.95L900 816.3z" stroke="#000" stroke-width="2" fill="#c1e4f7"/><use xlink:href="#u" transform="matrix(1,0,0,1,905,749.3750010056251) translate(43.099999999999994 49)"/><use xlink:href="#C" transform="matrix(1,0,0,1,905,749.3750010056251) translate(85.94999999999999 49)"/><use xlink:href="#D" transform="matrix(1,0,0,1,905,749.3750010056251) translate(72.55 70.60000000000001)"/><use xlink:href="#E" transform="matrix(1,0,0,1,905,749.3750010056251) translate(53 92.20000000000002)"/><use xlink:href="#F" transform="matrix(1,0,0,1,905,749.3750010056251) translate(79 92.20000000000002)"/><use xlink:href="#G" transform="matrix(1,0,0,1,905,749.3750010056251) translate(94 92.20000000000002)"/><path d="M1148.33 960l102.5 73.13-102.5 73.12-102.5-73.13z" stroke="#000" stroke-width="2" fill="#c1e4f7"/><use xlink:href="#u" transform="matrix(1,0,0,1,1050.8333333333526,964.9999999999999) translate(43.099999999999994 50.5)"/><use xlink:href="#C" transform="matrix(1,0,0,1,1050.8333333333526,964.9999999999999) translate(85.94999999999999 50.5)"/><use xlink:href="#D" transform="matrix(1,0,0,1,1050.8333333333526,964.9999999999999) translate(72.55 72.10000000000001)"/><use xlink:href="#H" transform="matrix(1,0,0,1,1050.8333333333526,964.9999999999999) translate(58.25 93.70000000000002)"/><use xlink:href="#I" transform="matrix(1,0,0,1,1050.8333333333526,964.9999999999999) translate(73.75 93.70000000000002)"/><use xlink:href="#J" transform="matrix(1,0,0,1,1050.8333333333526,964.9999999999999) translate(88.75 93.70000000000002)"/><path d="M1003.5 258.36v23.14h-2v-21.14h-49.47v-2zm-85.47 0v2H844v-18.08h2v16.08z"/><path d="M846 242.3h-2v-1.82l1 .8 1-.8zM1002.5 296.76l-4.64-14.26h9.28z"/><path d="M1002.5 300l-6-18.5h12zm-3.26-16.5l3.26 10.03 3.26-10.03z"/><use xlink:href="#K" transform="matrix(1,0,0,1,918.0306248474866,243.3596875762567) translate(0 21.333333333333336)"/><path d="M713 300c17.67 0 32 17.9 32 40s-14.33 40-32 40h-96c-17.67 0-32-17.9-32-40s14.33-40 32-40z" stroke="#000" stroke-width="2" fill="#ffeca9"/><use xlink:href="#L" transform="matrix(1,0,0,1,590,305) translate(47.77777777777777 39)"/><path d="M721.84 259.72H666v20.78h-2v-22.78h57.84zm124.16 0h-80.68v-2H844v-15.44h2z"/><path d="M846 242.3h-2v-1.82l1 .8 1-.8zM665 295.76l-4.64-14.26h9.28z"/><path d="M665 299l-6-18.5h12zm-3.26-16.5l3.26 10.03 3.26-10.03z"/><use xlink:href="#M" transform="matrix(1,0,0,1,721.8383219880294,242.7193751525134) translate(0 21.333333333333336)"/><path d="M453.33 761.88c21.17 0 38.34 17.9 38.34 40s-17.17 40-38.34 40h-115c-21.17 0-38.33-17.9-38.33-40s17.16-40 38.33-40z" stroke="#000" stroke-width="2" fill="#ffeca9"/><use xlink:href="#N" transform="matrix(1,0,0,1,305,766.8750002514059) translate(13.333333333333329 27)"/><use xlink:href="#O" transform="matrix(1,0,0,1,305,766.8750002514059) translate(128.66666666666666 27)"/><use xlink:href="#P" transform="matrix(1,0,0,1,305,766.8750002514059) translate(157.55555555555554 27)"/><use xlink:href="#Q" transform="matrix(1,0,0,1,305,766.8750002514059) translate(67.13888888888889 51)"/><path d="M706.67 761.88c21.17 0 38.33 17.9 38.33 40s-17.16 40-38.33 40h-115c-21.17 0-38.34-17.9-38.34-40s17.17-40 38.34-40z" stroke="#000" stroke-width="2" fill="#ffeca9"/><use xlink:href="#N" transform="matrix(1,0,0,1,558.3333333333721,766.8750002514059) translate(19.16666666666667 27)"/><use xlink:href="#R" transform="matrix(1,0,0,1,558.3333333333721,766.8750002514059) translate(134.5 27)"/><use xlink:href="#P" transform="matrix(1,0,0,1,558.3333333333721,766.8750002514059) translate(151.72222222222223 27)"/><use xlink:href="#Q" transform="matrix(1,0,0,1,558.3333333333721,766.8750002514059) translate(67.13888888888889 51)"/><path d="M439.5 722.06h-42.67v20.3h-2v-22.3h44.68zm88.17 0H483v-2h42.67v-37.8h2z"/><path d="M527.67 682.28h-2v-1.78l1 .75 1-.75zM395.83 757.64l-4.63-14.27h9.27z"/><path d="M395.83 760.87l-6-18.5h12.02zm-3.26-16.5l3.26 10.03 3.26-10.03z"/><use xlink:href="#M" transform="matrix(1,0,0,1,439.5092592592494,705.0624999999998) translate(0 21.333333333333336)"/><path d="M650.17 720.06v22.3h-2v-20.3h-43.25v-2zm-79.25 0v2h-45.25v-39.8h2v37.8z"/><path d="M527.67 682.28h-2v-1.78l1 .75 1-.75zM649.17 757.64l-4.64-14.27h9.27z"/><path d="M649.17 760.87l-6.02-18.5h12.03zm-3.26-16.5l3.27 10.03 3.26-10.03z"/><use xlink:href="#K" transform="matrix(1,0,0,1,570.9166666666763,705.0624999999998) translate(0 21.333333333333336)"/><path d="M1102.84 713.2h-99.34v11.45h-2V711.2h101.34zm144.83 0h-101.35v-2h99.35v-28.95h2z"/><path d="M1247.67 682.28h-2v-1.78l1 .75 1-.75zM1002.5 739.92l-4.64-14.27h9.28z"/><path d="M1002.5 743.15l-6-18.5h12zm-3.26-16.5l3.26 10.03 3.26-10.03z"/><use xlink:href="#M" transform="matrix(1,0,0,1,1102.8425925925926,696.201647628521) translate(0 21.333333333333336)"/><path d="M1149.33 923.12v17.15h-2v-15.15h-54.9v-2zm-90.9 0v2h-56.93v-34.65h2v32.65z"/><path d="M1003.5 890.5h-2v-1.73l1 .7 1-.7zM1148.33 955.54l-4.63-14.27h9.27z"/><path d="M1148.33 958.77l-6-18.5h12.02zm-3.26-16.5l3.26 10.03 3.26-10.03z"/><use xlink:href="#K" transform="matrix(1,0,0,1,1058.4166666666763,908.1216544968812) translate(0 21.333333333333336)"/><path d="M933.33 960c21.17 0 38.34 17.9 38.34 40s-17.17 40-38.34 40h-115c-21.17 0-38.33-17.9-38.33-40s17.16-40 38.33-40z" stroke="#000" stroke-width="2" fill="#ffeca9"/><use xlink:href="#S" transform="matrix(1,0,0,1,785,965) translate(2.25 39)"/><use xlink:href="#T" transform="matrix(1,0,0,1,785,965) translate(86.47222222222223 39)"/><use xlink:href="#U" transform="matrix(1,0,0,1,785,965) translate(115.36111111111111 39)"/><use xlink:href="#Q" transform="matrix(1,0,0,1,785,965) translate(132.02777777777777 39)"/><path d="M917.43 925.24h-40.6v15.26h-2v-17.26h42.6zm86.07 0h-42.6v-2h40.6v-32.77h2z"/><path d="M1003.5 890.5h-2v-1.73l1 .7 1-.7zM875.83 955.76l-4.63-14.26h9.27z"/><path d="M875.83 959l-6-18.5h12.02zm-3.26-16.5l3.26 10.03 3.26-10.03z"/><g><use xlink:href="#M" transform="matrix(1,0,0,1,917.4259259259162,908.235853251401) translate(0 21.333333333333336)"/></g><path d="M1073.33 1178c21.17 0 38.34 17.9 38.34 40s-17.17 40-38.34 40h-115c-21.17 0-38.33-17.9-38.33-40s17.16-40 38.33-40z" stroke="#000" stroke-width="2" fill="#ffeca9"/><g><use xlink:href="#S" transform="matrix(1,0,0,1,925,1182.999999245781) translate(22.83333333333333 27)"/><use xlink:href="#V" transform="matrix(1,0,0,1,925,1182.999999245781) translate(107.05555555555556 27)"/><use xlink:href="#W" transform="matrix(1,0,0,1,925,1182.999999245781) translate(123.72222222222221 27)"/><use xlink:href="#X" transform="matrix(1,0,0,1,925,1182.999999245781) translate(148.05555555555554 27)"/><use xlink:href="#Y" transform="matrix(1,0,0,1,925,1182.999999245781) translate(68.25 51)"/></g><path d="M1335 1178c21.17 0 38.33 17.9 38.33 40s-17.16 40-38.33 40h-115c-21.17 0-38.33-17.9-38.33-40s17.16-40 38.33-40z" stroke="#000" stroke-width="2" fill="#ffeca9"/><g><use xlink:href="#S" transform="matrix(1,0,0,1,1186.6666666667052,1182.999999245781) translate(3.3611111111111143 39)"/><use xlink:href="#O" transform="matrix(1,0,0,1,1186.6666666667052,1182.999999245781) translate(87.58333333333334 39)"/><use xlink:href="#Z" transform="matrix(1,0,0,1,1186.6666666667052,1182.999999245781) translate(116.47222222222223 39)"/><use xlink:href="#Y" transform="matrix(1,0,0,1,1186.6666666667052,1182.999999245781) translate(133.13888888888889 39)"/></g><path d="M1060.34 1143.24h-43.5v15.26h-2v-17.26h45.5zm89 0h-45.52v-2h43.5v-32.76h2z"/><path d="M1149.33 1108.5h-2v-1.74l1 .72 1-.72zM1015.83 1173.76l-4.63-14.26h9.27z"/><path d="M1015.83 1177l-6-18.5h12.02zm-3.26-16.5l3.26 10.03 3.26-10.03z"/><g><use xlink:href="#M" transform="matrix(1,0,0,1,1060.3425925925924,1126.23919837741) translate(0 21.333333333333336)"/></g><path d="M1278.5 1141.24v17.26h-2v-15.26h-46.58v-2zm-82.58 0v2h-48.6v-34.76h2v32.76z"/><path d="M1149.33 1108.5h-2v-1.74l1 .72 1-.72zM1277.5 1173.76l-4.64-14.26h9.28z"/><path d="M1277.5 1177l-6-18.5h12zm-3.26-16.5l3.26 10.03 3.26-10.03z"/><g><use xlink:href="#K" transform="matrix(1,0,0,1,1195.916666666686,1126.23919837741) translate(0 21.333333333333336)"/></g><path d="M742.84 487.88H527.67v12.37h-2v-14.38h217.17zm260.66 0H786.32v-2h215.18V456h2z"/><path d="M1003.5 456.03h-2v-1.78l1 .75 1-.75zM526.67 515.5l-4.64-14.25h9.27z"/><path d="M526.67 518.75l-6.02-18.5h12.03zm-3.26-16.5l3.27 10.03 3.26-10.03z"/><g><use xlink:href="#M" transform="matrix(1,0,0,1,742.8425925925925,470.8750001257031) translate(0 21.333333333333336)"/></g><path d="M1400 660h205v106h-205z" stroke="#000" stroke-width="2" fill="#c7e8ac"/><g><use xlink:href="#aa" transform="matrix(1,0,0,1,1405,665) translate(6.611111111111114 28)"/><use xlink:href="#ab" transform="matrix(1,0,0,1,1405,665) translate(73.11111111111111 28)"/><use xlink:href="#ac" transform="matrix(1,0,0,1,1405,665) translate(124.11111111111111 28)"/><use xlink:href="#ad" transform="matrix(1,0,0,1,1405,665) translate(9.916666666666657 52)"/><use xlink:href="#ae" transform="matrix(1,0,0,1,1405,665) translate(75.3611111111111 52)"/><use xlink:href="#af" transform="matrix(1,0,0,1,1405,665) translate(139.63888888888889 52)"/><use xlink:href="#W" transform="matrix(1,0,0,1,1405,665) translate(64.30555555555556 76)"/><use xlink:href="#ag" transform="matrix(1,0,0,1,1405,665) translate(88.63888888888889 76)"/></g><path d="M1247.67 485.88v14.37h-2v-12.38h-104.1v-2zm-140.1 0v2H1001.5V456h2v29.88z"/><path d="M1003.5 456.03h-2v-1.78l1 .75 1-.75zM1246.67 515.5l-4.64-14.25h9.27z"/><path d="M1246.67 518.75l-6.02-18.5h12.03zm-3.26-16.5l3.27 10.03 3.26-10.03z"/><g><use xlink:href="#K" transform="matrix(1,0,0,1,1107.5833333333333,470.8750001257031) translate(0 21.333333333333336)"/></g><path d="M1247.67 712h42.3v2h-44.3v-31.75h2zm132.83 0v2h-56.54v-2z"/><path d="M1247.67 682.28h-2v-1.78l1 .75 1-.75zM1395.76 713l-14.26 4.64v-9.28z"/><path d="M1399 713l-18.5 6v-12zm-16.5 3.26l10.03-3.26-10.03-3.26z"/><g><use xlink:href="#K" transform="matrix(1,0,0,1,1289.9583332076304,697) translate(0 21.333333333333336)"/></g><path d="M1502.5 658v-58h-129" stroke="#000" stroke-width="2" fill="none"/><path d="M1503.5 659h-2v-1.03h2z"/><path d="M1358.24 600l14.26-4.64v9.28z" stroke="#000" stroke-width="2"/><defs><path d="M67-125c0 53 21 87 73 88 37 1 54-22 65-47l45 17C233-25 199 4 140 4 58 4 20-42 15-125 8-235 124-281 211-232c18 10 29 29 36 50l-46 12c-8-25-30-41-62-41-52 0-71 34-72 86" id="ah"/><path d="M133-34C117-15 103 5 69 4 32 3 11-16 11-54c-1-60 55-63 116-61 1-26-3-47-28-47-18 1-26 9-28 27l-52-2c7-38 36-58 82-57s74 22 75 68l1 82c-1 14 12 18 25 15v27c-30 8-71 5-69-32zm-48 3c29 0 43-24 42-57-32 0-66-3-65 30 0 17 8 27 23 27" id="ai"/><path d="M135-194c87-1 58 113 63 194h-50c-7-57 23-157-34-157-59 0-34 97-39 157H25l-1-190h47c2 12-1 28 3 38 12-26 28-41 61-42" id="aj"/><path d="M190-63c-7 42-38 67-86 67-59 0-84-38-90-98-12-110 154-137 174-36l-49 2c-2-19-15-32-35-32-30 0-35 28-38 64-6 74 65 87 74 30" id="ak"/><path d="M185-48c-13 30-37 53-82 52C43 2 14-33 14-96s30-98 90-98c62 0 83 45 84 108H66c0 31 8 55 39 56 18 0 30-7 34-22zm-45-69c5-46-57-63-70-21-2 6-4 13-4 21h74" id="al"/><path d="M25 0v-261h50V0H25" id="am"/><path d="M88-194c31-1 46 15 58 34l-1-101h50l1 261h-48c-2-10 0-23-3-31C134-8 116 4 84 4 32 4 16-41 15-95c0-56 19-97 73-99zm17 164c33 0 40-30 41-66 1-37-9-64-41-64s-38 30-39 65c0 43 13 65 39 65" id="an"/><g id="a"><use transform="matrix(0.07407407407407408,0,0,0.07407407407407408,0,0)" xlink:href="#ah"/><use transform="matrix(0.07407407407407408,0,0,0.07407407407407408,19.185185185185187,0)" xlink:href="#ai"/><use transform="matrix(0.07407407407407408,0,0,0.07407407407407408,34,0)" xlink:href="#aj"/><use transform="matrix(0.07407407407407408,0,0,0.07407407407407408,50.22222222222223,0)" xlink:href="#ak"/><use transform="matrix(0.07407407407407408,0,0,0.07407407407407408,65.03703703703704,0)" xlink:href="#al"/><use transform="matrix(0.07407407407407408,0,0,0.07407407407407408,79.85185185185185,0)" xlink:href="#am"/><use transform="matrix(0.07407407407407408,0,0,0.07407407407407408,87.25925925925925,0)" xlink:href="#am"/><use transform="matrix(0.07407407407407408,0,0,0.07407407407407408,94.66666666666666,0)" xlink:href="#al"/><use transform="matrix(0.07407407407407408,0,0,0.07407407407407408,109.48148148148147,0)" xlink:href="#an"/></g><path d="M137-138c1-29-70-34-71-4 15 46 118 7 119 86 1 83-164 76-172 9l43-7c4 19 20 25 44 25 33 8 57-30 24-41C81-84 22-81 20-136c-2-80 154-74 161-7" id="ao"/><path d="M115-3C79 11 28 4 28-45v-112H4v-33h27l15-45h31v45h36v33H77v99c-1 23 16 31 38 25v30" id="ap"/><path d="M85 4C-2 5 27-109 22-190h50c7 57-23 150 33 157 60-5 35-97 40-157h50l1 190h-47c-2-12 1-28-3-38-12 25-28 42-61 42" id="aq"/><g id="b"><use transform="matrix(0.07407407407407408,0,0,0.07407407407407408,0,0)" xlink:href="#ao"/><use transform="matrix(0.07407407407407408,0,0,0.07407407407407408,14.814814814814817,0)" xlink:href="#ap"/><use transform="matrix(0.07407407407407408,0,0,0.07407407407407408,23.629629629629633,0)" xlink:href="#ai"/><use transform="matrix(0.07407407407407408,0,0,0.07407407407407408,38.44444444444445,0)" xlink:href="#ap"/><use transform="matrix(0.07407407407407408,0,0,0.07407407407407408,47.25925925925927,0)" xlink:href="#aq"/><use transform="matrix(0.07407407407407408,0,0,0.07407407407407408,63.481481481481495,0)" xlink:href="#ao"/></g><path d="M175 0L67-191c6 58 2 128 3 191H24v-248h59L193-55c-6-58-2-129-3-193h46V0h-61" id="ar"/><path d="M140-251c80 0 125 45 125 126S219 4 139 4C58 4 15-44 15-125s44-126 125-126zm-1 214c52 0 73-35 73-88 0-50-21-86-72-86-52 0-73 35-73 86s22 88 72 88" id="as"/><path d="M136-208V0H84v-208H4v-40h212v40h-80" id="at"/><g id="c"><use transform="matrix(0.07407407407407408,0,0,0.07407407407407408,0,0)" xlink:href="#ar"/><use transform="matrix(0.07407407407407408,0,0,0.07407407407407408,19.185185185185187,0)" xlink:href="#as"/><use transform="matrix(0.07407407407407408,0,0,0.07407407407407408,39.92592592592593,0)" xlink:href="#at"/></g><path d="M135-194c52 0 70 43 70 98 0 56-19 99-73 100-30 1-46-15-58-35L72 0H24l1-261h50v104c11-23 29-37 60-37zM114-30c31 0 40-27 40-66 0-37-7-63-39-63s-41 28-41 65c0 36 8 64 40 64" id="au"/><path d="M121-226c-27-7-43 5-38 36h38v33H83V0H34v-157H6v-33h28c-9-59 32-81 87-68v32" id="av"/><path d="M110-194c64 0 96 36 96 99 0 64-35 99-97 99-61 0-95-36-95-99 0-62 34-99 96-99zm-1 164c35 0 45-28 45-65 0-40-10-65-43-65-34 0-45 26-45 65 0 36 10 65 43 65" id="aw"/><path d="M135-150c-39-12-60 13-60 57V0H25l-1-190h47c2 13-1 29 3 40 6-28 27-53 61-41v41" id="ax"/><g id="d"><use transform="matrix(0.07407407407407408,0,0,0.07407407407407408,0,0)" xlink:href="#au"/><use transform="matrix(0.07407407407407408,0,0,0.07407407407407408,16.222222222222225,0)" xlink:href="#al"/><use transform="matrix(0.07407407407407408,0,0,0.07407407407407408,31.03703703703704,0)" xlink:href="#av"/><use transform="matrix(0.07407407407407408,0,0,0.07407407407407408,39.85185185185187,0)" xlink:href="#aw"/><use transform="matrix(0.07407407407407408,0,0,0.07407407407407408,56.07407407407409,0)" xlink:href="#ax"/><use transform="matrix(0.07407407407407408,0,0,0.07407407407407408,66.44444444444446,0)" xlink:href="#al"/></g><path d="M23 0v-37h61v-169l-59 37v-38l62-41h46v211h57V0H23" id="ay"/><g id="e"><use transform="matrix(0.07407407407407408,0,0,0.07407407407407408,0,0)" xlink:href="#ay"/><use transform="matrix(0.07407407407407408,0,0,0.07407407407407408,14.814814814814817,0)" xlink:href="#ao"/><use transform="matrix(0.07407407407407408,0,0,0.07407407407407408,29.629629629629633,0)" xlink:href="#ap"/></g><path d="M25-224v-37h50v37H25zM25 0v-190h50V0H25" id="az"/><path d="M128 0H69L1-190h53L99-40l48-150h52" id="aA"/><g id="f"><use transform="matrix(0.07407407407407408,0,0,0.07407407407407408,0,0)" xlink:href="#ai"/><use transform="matrix(0.07407407407407408,0,0,0.07407407407407408,14.814814814814817,0)" xlink:href="#ak"/><use transform="matrix(0.07407407407407408,0,0,0.07407407407407408,29.629629629629633,0)" xlink:href="#ap"/><use transform="matrix(0.07407407407407408,0,0,0.07407407407407408,38.44444444444445,0)" xlink:href="#az"/><use transform="matrix(0.07407407407407408,0,0,0.07407407407407408,45.851851851851855,0)" xlink:href="#aA"/><use transform="matrix(0.07407407407407408,0,0,0.07407407407407408,60.66666666666667,0)" xlink:href="#al"/></g><path d="M114-157C55-157 80-60 75 0H25v-261h50l-1 109c12-26 28-41 61-42 86-1 58 113 63 194h-50c-7-57 23-157-34-157" id="aB"/><path d="M135-194c53 0 70 44 70 98 0 56-19 98-73 100-31 1-45-17-59-34 3 33 2 69 2 105H25l-1-265h48c2 10 0 23 3 31 11-24 29-35 60-35zM114-30c33 0 39-31 40-66 0-38-9-64-40-64-56 0-55 130 0 130" id="aC"/><path d="M220-157c-53 9-28 100-34 157h-49v-107c1-27-5-49-29-50C55-147 81-57 75 0H25l-1-190h47c2 12-1 28 3 38 10-53 101-56 108 0 13-22 24-43 59-42 82 1 51 116 57 194h-49v-107c-1-25-5-48-29-50" id="aD"/><g id="g"><use transform="matrix(0.07407407407407408,0,0,0.07407407407407408,0,0)" xlink:href="#ao"/><use transform="matrix(0.07407407407407408,0,0,0.07407407407407408,14.814814814814817,0)" xlink:href="#aB"/><use transform="matrix(0.07407407407407408,0,0,0.07407407407407408,31.03703703703704,0)" xlink:href="#az"/><use transform="matrix(0.07407407407407408,0,0,0.07407407407407408,38.44444444444445,0)" xlink:href="#aC"/><use transform="matrix(0.07407407407407408,0,0,0.07407407407407408,54.66666666666667,0)" xlink:href="#aD"/><use transform="matrix(0.07407407407407408,0,0,0.07407407407407408,78.37037037037038,0)" xlink:href="#al"/><use transform="matrix(0.07407407407407408,0,0,0.07407407407407408,93.18518518518519,0)" xlink:href="#aj"/><use transform="matrix(0.07407407407407408,0,0,0.07407407407407408,109.40740740740742,0)" xlink:href="#ap"/></g><path d="M185-189c-5-48-123-54-124 2 14 75 158 14 163 119 3 78-121 87-175 55-17-10-28-26-33-46l33-7c5 56 141 63 141-1 0-78-155-14-162-118-5-82 145-84 179-34 5 7 8 16 11 25" id="aE"/><path d="M84 4C-5 8 30-112 23-190h32v120c0 31 7 50 39 49 72-2 45-101 50-169h31l1 190h-30c-1-10 1-25-2-33-11 22-28 36-60 37" id="aF"/><path d="M115-194c53 0 69 39 70 98 0 66-23 100-70 100C84 3 66-7 56-30L54 0H23l1-261h32v101c10-23 28-34 59-34zm-8 174c40 0 45-34 45-75 0-40-5-75-45-74-42 0-51 32-51 76 0 43 10 73 51 73" id="aG"/><path d="M135-143c-3-34-86-38-87 0 15 53 115 12 119 90S17 21 10-45l28-5c4 36 97 45 98 0-10-56-113-15-118-90-4-57 82-63 122-42 12 7 21 19 24 35" id="aH"/><path d="M59-47c-2 24 18 29 38 22v24C64 9 27 4 27-40v-127H5v-23h24l9-43h21v43h35v23H59v120" id="aI"/><path d="M141-36C126-15 110 5 73 4 37 3 15-17 15-53c-1-64 63-63 125-63 3-35-9-54-41-54-24 1-41 7-42 31l-33-3c5-37 33-52 76-52 45 0 72 20 72 64v82c-1 20 7 32 28 27v20c-31 9-61-2-59-35zM48-53c0 20 12 33 32 33 41-3 63-29 60-74-43 2-92-5-92 41" id="aJ"/><g id="h"><use transform="matrix(0.05,0,0,0.05,0,0)" xlink:href="#aE"/><use transform="matrix(0.05,0,0,0.05,12,0)" xlink:href="#aF"/><use transform="matrix(0.05,0,0,0.05,22,0)" xlink:href="#aG"/><use transform="matrix(0.05,0,0,0.05,32,0)" xlink:href="#aH"/><use transform="matrix(0.05,0,0,0.05,41,0)" xlink:href="#aI"/><use transform="matrix(0.05,0,0,0.05,46,0)" xlink:href="#aJ"/><use transform="matrix(0.05,0,0,0.05,56,0)" xlink:href="#aI"/><use transform="matrix(0.05,0,0,0.05,61,0)" xlink:href="#aF"/><use transform="matrix(0.05,0,0,0.05,71,0)" xlink:href="#aH"/></g><path d="M18-150v-26h174v26H18zm0 90v-26h174v26H18" id="aK"/><use transform="matrix(0.05,0,0,0.05,0,0)" xlink:href="#aK" id="i"/><path d="M212-179c-10-28-35-45-73-45-59 0-87 40-87 99 0 60 29 101 89 101 43 0 62-24 78-52l27 14C228-24 195 4 139 4 59 4 22-46 18-125c-6-104 99-153 187-111 19 9 31 26 39 46" id="aL"/><path d="M100-194c62-1 85 37 85 99 1 63-27 99-86 99S16-35 15-95c0-66 28-99 85-99zM99-20c44 1 53-31 53-75 0-43-8-75-51-75s-53 32-53 75 10 74 51 75" id="aM"/><path d="M108 0H70L1-190h34L89-25l56-165h34" id="aN"/><path d="M100-194c63 0 86 42 84 106H49c0 40 14 67 53 68 26 1 43-12 49-29l28 8c-11 28-37 45-77 45C44 4 14-33 15-96c1-61 26-98 85-98zm52 81c6-60-76-77-97-28-3 7-6 17-6 28h103" id="aO"/><path d="M114-163C36-179 61-72 57 0H25l-1-190h30c1 12-1 29 2 39 6-27 23-49 58-41v29" id="aP"/><path d="M177-190C167-65 218 103 67 71c-23-6-38-20-44-43l32-5c15 47 100 32 89-28v-30C133-14 115 1 83 1 29 1 15-40 15-95c0-56 16-97 71-98 29-1 48 16 59 35 1-10 0-23 2-32h30zM94-22c36 0 50-32 50-73 0-42-14-75-50-75-39 0-46 34-46 75s6 73 46 73" id="aQ"/><g id="j"><use transform="matrix(0.05,0,0,0.05,0,0)" xlink:href="#aL"/><use transform="matrix(0.05,0,0,0.05,12.950000000000001,0)" xlink:href="#aM"/><use transform="matrix(0.05,0,0,0.05,22.950000000000003,0)" xlink:href="#aN"/><use transform="matrix(0.05,0,0,0.05,31.950000000000003,0)" xlink:href="#aO"/><use transform="matrix(0.05,0,0,0.05,41.95,0)" xlink:href="#aP"/><use transform="matrix(0.05,0,0,0.05,47.900000000000006,0)" xlink:href="#aJ"/><use transform="matrix(0.05,0,0,0.05,57.900000000000006,0)" xlink:href="#aQ"/><use transform="matrix(0.05,0,0,0.05,67.9,0)" xlink:href="#aO"/></g><path d="M30-248c118-7 216 8 213 122C240-48 200 0 122 0H30v-248zM63-27c89 8 146-16 146-99s-60-101-146-95v194" id="aR"/><path d="M117-194c89-4 53 116 60 194h-32v-121c0-31-8-49-39-48C34-167 62-67 57 0H25l-1-190h30c1 10-1 24 2 32 11-22 29-35 61-36" id="aS"/><path d="M24-231v-30h32v30H24zM24 0v-190h32V0H24" id="aT"/><path d="M85-194c31 0 48 13 60 33l-1-100h32l1 261h-30c-2-10 0-23-3-31C134-8 116 4 85 4 32 4 16-35 15-94c0-66 23-100 70-100zm9 24c-40 0-46 34-46 75 0 40 6 74 45 74 42 0 51-32 51-76 0-42-9-74-50-73" id="aU"/><path d="M103-251c84 0 111 97 45 133-19 10-37 24-39 52H78c0-63 77-55 77-114 0-30-21-42-52-43-32 0-53 17-56 46l-32-2c7-45 34-72 88-72zM77 0v-35h34V0H77" id="aV"/><g id="k"><use transform="matrix(0.05,0,0,0.05,0,0)" xlink:href="#aR"/><use transform="matrix(0.05,0,0,0.05,12.950000000000001,0)" xlink:href="#aO"/><use transform="matrix(0.05,0,0,0.05,22.950000000000003,0)" xlink:href="#aS"/><use transform="matrix(0.05,0,0,0.05,32.95,0)" xlink:href="#aT"/><use transform="matrix(0.05,0,0,0.05,36.900000000000006,0)" xlink:href="#aO"/><use transform="matrix(0.05,0,0,0.05,46.900000000000006,0)" xlink:href="#aU"/><use transform="matrix(0.05,0,0,0.05,56.900000000000006,0)" xlink:href="#aV"/></g><path d="M197 0v-115H63V0H30v-248h33v105h134v-105h34V0h-34" id="aW"/><path d="M96-169c-40 0-48 33-48 73s9 75 48 75c24 0 41-14 43-38l32 2c-6 37-31 61-74 61-59 0-76-41-82-99-10-93 101-131 147-64 4 7 5 14 7 22l-32 3c-4-21-16-35-41-35" id="aX"/><path d="M106-169C34-169 62-67 57 0H25v-261h32l-1 103c12-21 28-36 61-36 89 0 53 116 60 194h-32v-121c2-32-8-49-39-48" id="aY"/><path d="M179-190L93 31C79 59 56 82 12 73V49c39 6 53-20 64-50L1-190h34L92-34l54-156h33" id="aZ"/><g id="l"><use transform="matrix(0.05,0,0,0.05,0,0)" xlink:href="#aW"/><use transform="matrix(0.05,0,0,0.05,12.950000000000001,0)" xlink:href="#aT"/><use transform="matrix(0.05,0,0,0.05,16.900000000000002,0)" xlink:href="#aO"/><use transform="matrix(0.05,0,0,0.05,26.900000000000002,0)" xlink:href="#aP"/><use transform="matrix(0.05,0,0,0.05,32.85,0)" xlink:href="#aJ"/><use transform="matrix(0.05,0,0,0.05,42.85,0)" xlink:href="#aP"/><use transform="matrix(0.05,0,0,0.05,48.800000000000004,0)" xlink:href="#aX"/><use transform="matrix(0.05,0,0,0.05,57.800000000000004,0)" xlink:href="#aY"/><use transform="matrix(0.05,0,0,0.05,67.80000000000001,0)" xlink:href="#aZ"/></g><use transform="matrix(0.05,0,0,0.05,0,0)" xlink:href="#aK" id="m"/><path d="M127-220V0H93v-220H8v-28h204v28h-85" id="ba"/><path d="M101-234c-31-9-42 10-38 44h38v23H63V0H32v-167H5v-23h27c-7-52 17-82 69-68v24" id="bb"/><g id="n"><use transform="matrix(0.05,0,0,0.05,0,0)" xlink:href="#ba"/><use transform="matrix(0.05,0,0,0.05,10.3,0)" xlink:href="#aP"/><use transform="matrix(0.05,0,0,0.05,16.25,0)" xlink:href="#aJ"/><use transform="matrix(0.05,0,0,0.05,26.25,0)" xlink:href="#aS"/><use transform="matrix(0.05,0,0,0.05,36.25,0)" xlink:href="#aH"/><use transform="matrix(0.05,0,0,0.05,45.25,0)" xlink:href="#bb"/><use transform="matrix(0.05,0,0,0.05,50.25,0)" xlink:href="#aO"/><use transform="matrix(0.05,0,0,0.05,60.25,0)" xlink:href="#aP"/><use transform="matrix(0.05,0,0,0.05,66.2,0)" xlink:href="#aV"/></g><g id="o"><use transform="matrix(0.05,0,0,0.05,0,0)" xlink:href="#ba"/><use transform="matrix(0.05,0,0,0.05,10.3,0)" xlink:href="#aP"/><use transform="matrix(0.05,0,0,0.05,16.25,0)" xlink:href="#aJ"/><use transform="matrix(0.05,0,0,0.05,26.25,0)" xlink:href="#aS"/><use transform="matrix(0.05,0,0,0.05,36.25,0)" xlink:href="#aH"/><use transform="matrix(0.05,0,0,0.05,45.25,0)" xlink:href="#bb"/><use transform="matrix(0.05,0,0,0.05,50.25,0)" xlink:href="#aO"/><use transform="matrix(0.05,0,0,0.05,60.25,0)" xlink:href="#aP"/></g><g id="p"><use transform="matrix(0.05,0,0,0.05,0,0)" xlink:href="#aU"/><use transform="matrix(0.05,0,0,0.05,10,0)" xlink:href="#aJ"/><use transform="matrix(0.05,0,0,0.05,20,0)" xlink:href="#aI"/><use transform="matrix(0.05,0,0,0.05,25,0)" xlink:href="#aO"/></g><path d="M16-82v-28h88v28H16" id="bc"/><use transform="matrix(0.05,0,0,0.05,0,0)" xlink:href="#bc" id="q"/><path d="M210-169c-67 3-38 105-44 169h-31v-121c0-29-5-50-35-48C34-165 62-65 56 0H25l-1-190h30c1 10-1 24 2 32 10-44 99-50 107 0 11-21 27-35 58-36 85-2 47 119 55 194h-31v-121c0-29-5-49-35-48" id="bd"/><path d="M87 75C49 33 22-17 22-94c0-76 28-126 65-167h31c-38 41-64 92-64 168S80 34 118 75H87" id="be"/><path d="M24 0v-261h32V0H24" id="bf"/><path d="M-5 72V49h209v23H-5" id="bg"/><path d="M33-261c38 41 65 92 65 168S71 34 33 75H2C39 34 66-17 66-93S39-220 2-261h31" id="bh"/><g id="r"><use transform="matrix(0.05,0,0,0.05,0,0)" xlink:href="#bd"/><use transform="matrix(0.05,0,0,0.05,14.950000000000001,0)" xlink:href="#aT"/><use transform="matrix(0.05,0,0,0.05,18.900000000000002,0)" xlink:href="#aS"/><use transform="matrix(0.05,0,0,0.05,28.900000000000002,0)" xlink:href="#be"/><use transform="matrix(0.05,0,0,0.05,34.85,0)" xlink:href="#aP"/><use transform="matrix(0.05,0,0,0.05,40.800000000000004,0)" xlink:href="#aO"/><use transform="matrix(0.05,0,0,0.05,50.800000000000004,0)" xlink:href="#bb"/><use transform="matrix(0.05,0,0,0.05,55.800000000000004,0)" xlink:href="#aO"/><use transform="matrix(0.05,0,0,0.05,65.80000000000001,0)" xlink:href="#aP"/><use transform="matrix(0.05,0,0,0.05,71.75000000000001,0)" xlink:href="#aP"/><use transform="matrix(0.05,0,0,0.05,77.70000000000002,0)" xlink:href="#aJ"/><use transform="matrix(0.05,0,0,0.05,87.70000000000002,0)" xlink:href="#bf"/><use transform="matrix(0.05,0,0,0.05,91.65000000000002,0)" xlink:href="#bg"/><use transform="matrix(0.05,0,0,0.05,101.65000000000002,0)" xlink:href="#aU"/><use transform="matrix(0.05,0,0,0.05,111.65000000000003,0)" xlink:href="#aJ"/><use transform="matrix(0.05,0,0,0.05,121.65000000000003,0)" xlink:href="#aI"/><use transform="matrix(0.05,0,0,0.05,126.65000000000003,0)" xlink:href="#aO"/><use transform="matrix(0.05,0,0,0.05,136.65000000000003,0)" xlink:href="#bh"/></g><path d="M18-100v-36l175-74v27L42-118l151 64v27" id="bi"/><g id="s"><use transform="matrix(0.05,0,0,0.05,0,0)" xlink:href="#bi"/><use transform="matrix(0.05,0,0,0.05,10.5,0)" xlink:href="#aK"/></g><path d="M101-251c82-7 93 87 43 132L82-64C71-53 59-42 53-27h129V0H18c2-99 128-94 128-182 0-28-16-43-45-43s-46 15-49 41l-32-3c6-41 34-60 81-64" id="bj"/><g id="t"><use transform="matrix(0.05,0,0,0.05,0,0)" xlink:href="#bj"/><use transform="matrix(0.05,0,0,0.05,10,0)" xlink:href="#aV"/></g><path d="M30-248c87 1 191-15 191 75 0 78-77 80-158 76V0H30v-248zm33 125c57 0 124 11 124-50 0-59-68-47-124-48v98" id="bk"/><g id="u"><use transform="matrix(0.05,0,0,0.05,0,0)" xlink:href="#bk"/><use transform="matrix(0.05,0,0,0.05,12,0)" xlink:href="#aP"/><use transform="matrix(0.05,0,0,0.05,17.95,0)" xlink:href="#aT"/><use transform="matrix(0.05,0,0,0.05,21.9,0)" xlink:href="#aM"/><use transform="matrix(0.05,0,0,0.05,31.899999999999995,0)" xlink:href="#aP"/></g><g id="v"><use transform="matrix(0.05,0,0,0.05,0,0)" xlink:href="#aH"/><use transform="matrix(0.05,0,0,0.05,9,0)" xlink:href="#aI"/><use transform="matrix(0.05,0,0,0.05,14,0)" xlink:href="#aJ"/><use transform="matrix(0.05,0,0,0.05,24,0)" xlink:href="#aI"/><use transform="matrix(0.05,0,0,0.05,29,0)" xlink:href="#aF"/><use transform="matrix(0.05,0,0,0.05,39,0)" xlink:href="#aH"/></g><g id="w"><use transform="matrix(0.05,0,0,0.05,0,0)" xlink:href="#bk"/><use transform="matrix(0.05,0,0,0.05,12,0)" xlink:href="#aO"/><use transform="matrix(0.05,0,0,0.05,22,0)" xlink:href="#aS"/><use transform="matrix(0.05,0,0,0.05,32,0)" xlink:href="#aU"/><use transform="matrix(0.05,0,0,0.05,42,0)" xlink:href="#aT"/><use transform="matrix(0.05,0,0,0.05,45.95,0)" xlink:href="#aS"/><use transform="matrix(0.05,0,0,0.05,55.95,0)" xlink:href="#aQ"/></g><g id="x"><use transform="matrix(0.05,0,0,0.05,0,0)" xlink:href="#be"/><use transform="matrix(0.05,0,0,0.05,5.95,0)" xlink:href="#aM"/><use transform="matrix(0.05,0,0,0.05,15.949999999999998,0)" xlink:href="#aP"/></g><g id="y"><use transform="matrix(0.05,0,0,0.05,0,0)" xlink:href="#aS"/><use transform="matrix(0.05,0,0,0.05,10,0)" xlink:href="#aM"/></g><path d="M115-194c55 1 70 41 70 98S169 2 115 4C84 4 66-9 55-30l1 105H24l-1-265h31l2 30c10-21 28-34 59-34zm-8 174c40 0 45-34 45-75s-6-73-45-74c-42 0-51 32-51 76 0 43 10 73 51 73" id="bl"/><g id="z"><use transform="matrix(0.05,0,0,0.05,0,0)" xlink:href="#bl"/><use transform="matrix(0.05,0,0,0.05,10,0)" xlink:href="#aP"/><use transform="matrix(0.05,0,0,0.05,15.949999999999998,0)" xlink:href="#aT"/><use transform="matrix(0.05,0,0,0.05,19.9,0)" xlink:href="#aM"/><use transform="matrix(0.05,0,0,0.05,29.899999999999995,0)" xlink:href="#aP"/></g><g id="A"><use transform="matrix(0.05,0,0,0.05,0,0)" xlink:href="#aH"/><use transform="matrix(0.05,0,0,0.05,9,0)" xlink:href="#aI"/><use transform="matrix(0.05,0,0,0.05,14,0)" xlink:href="#aJ"/><use transform="matrix(0.05,0,0,0.05,24,0)" xlink:href="#aI"/><use transform="matrix(0.05,0,0,0.05,29,0)" xlink:href="#aF"/><use transform="matrix(0.05,0,0,0.05,39,0)" xlink:href="#aH"/><use transform="matrix(0.05,0,0,0.05,48,0)" xlink:href="#bh"/></g><use transform="matrix(0.05,0,0,0.05,0,0)" xlink:href="#aV" id="B"/><g id="C"><use transform="matrix(0.05,0,0,0.05,0,0)" xlink:href="#bk"/><use transform="matrix(0.05,0,0,0.05,12,0)" xlink:href="#aO"/><use transform="matrix(0.05,0,0,0.05,22,0)" xlink:href="#aS"/><use transform="matrix(0.05,0,0,0.05,32,0)" xlink:href="#aU"/><use transform="matrix(0.05,0,0,0.05,42,0)" xlink:href="#aT"/><use transform="matrix(0.05,0,0,0.05,45.95,0)" xlink:href="#aS"/><use transform="matrix(0.05,0,0,0.05,55.95,0)" xlink:href="#aQ"/></g><g id="D"><use transform="matrix(0.05,0,0,0.05,0,0)" xlink:href="#bl"/><use transform="matrix(0.05,0,0,0.05,10,0)" xlink:href="#aO"/><use transform="matrix(0.05,0,0,0.05,20,0)" xlink:href="#aP"/><use transform="matrix(0.05,0,0,0.05,25.950000000000003,0)" xlink:href="#aT"/><use transform="matrix(0.05,0,0,0.05,29.899999999999995,0)" xlink:href="#aM"/><use transform="matrix(0.05,0,0,0.05,39.9,0)" xlink:href="#aU"/></g><path d="M18-27v-27l151-64-151-65v-27l175 74v36" id="bm"/><g id="E"><use transform="matrix(0.05,0,0,0.05,0,0)" xlink:href="#bm"/><use transform="matrix(0.05,0,0,0.05,10.5,0)" xlink:href="#aK"/></g><path d="M64 0c3-98 48-159 88-221H18v-27h164v26C143-157 98-101 97 0H64" id="bn"/><use transform="matrix(0.05,0,0,0.05,0,0)" xlink:href="#bn" id="F"/><g id="G"><use transform="matrix(0.05,0,0,0.05,0,0)" xlink:href="#aU"/><use transform="matrix(0.05,0,0,0.05,10,0)" xlink:href="#aJ"/><use transform="matrix(0.05,0,0,0.05,20,0)" xlink:href="#aZ"/><use transform="matrix(0.05,0,0,0.05,29,0)" xlink:href="#aH"/><use transform="matrix(0.05,0,0,0.05,38,0)" xlink:href="#aV"/></g><use transform="matrix(0.05,0,0,0.05,0,0)" xlink:href="#bm" id="H"/><path d="M126-127c33 6 58 20 58 59 0 88-139 92-164 29-3-8-5-16-6-25l32-3c6 27 21 44 54 44 32 0 52-15 52-46 0-38-36-46-79-43v-28c39 1 72-4 72-42 0-27-17-43-46-43-28 0-47 15-49 41l-32-3c6-42 35-63 81-64 48-1 79 21 79 65 0 36-21 52-52 59" id="bo"/><use transform="matrix(0.05,0,0,0.05,0,0)" xlink:href="#bo" id="I"/><g id="J"><use transform="matrix(0.05,0,0,0.05,0,0)" xlink:href="#aU"/><use transform="matrix(0.05,0,0,0.05,10,0)" xlink:href="#aJ"/><use transform="matrix(0.05,0,0,0.05,20,0)" xlink:href="#aZ"/><use transform="matrix(0.05,0,0,0.05,29,0)" xlink:href="#aH"/><use transform="matrix(0.05,0,0,0.05,38,0)" xlink:href="#aV"/></g><path d="M190 0L58-211 59 0H30v-248h39L202-35l-2-213h31V0h-41" id="bp"/><g id="K"><use transform="matrix(0.07407407407407408,0,0,0.07407407407407408,0,0)" xlink:href="#bp"/><use transform="matrix(0.07407407407407408,0,0,0.07407407407407408,19.185185185185187,0)" xlink:href="#aM"/></g><path d="M24-248c93 1 206-16 204 79-1 75-69 88-152 82V0H24v-248zm52 121c47 0 100 7 100-41 0-47-54-39-100-39v80" id="bq"/><path d="M123 10C108 53 80 86 19 72V37c35 8 53-11 59-39L3-190h52l48 148c12-52 28-100 44-148h51" id="br"/><g id="L"><use transform="matrix(0.05555555555555555,0,0,0.05555555555555555,0,0)" xlink:href="#bq"/><use transform="matrix(0.05555555555555555,0,0,0.05555555555555555,13.333333333333332,0)" xlink:href="#ai"/><use transform="matrix(0.05555555555555555,0,0,0.05555555555555555,24.444444444444443,0)" xlink:href="#br"/><use transform="matrix(0.05555555555555555,0,0,0.05555555555555555,35.55555555555556,0)" xlink:href="#al"/><use transform="matrix(0.05555555555555555,0,0,0.05555555555555555,46.66666666666667,0)" xlink:href="#ax"/></g><path d="M137-103V0h-34v-103L8-248h37l75 118 75-118h37" id="bs"/><g id="M"><use transform="matrix(0.07407407407407408,0,0,0.07407407407407408,0,0)" xlink:href="#bs"/><use transform="matrix(0.07407407407407408,0,0,0.07407407407407408,15.333333333333334,0)" xlink:href="#aO"/><use transform="matrix(0.07407407407407408,0,0,0.07407407407407408,30.148148148148152,0)" xlink:href="#aH"/></g><g id="N"><use transform="matrix(0.05555555555555555,0,0,0.05555555555555555,0,0)" xlink:href="#at"/><use transform="matrix(0.05555555555555555,0,0,0.05555555555555555,11.055555555555555,0)" xlink:href="#ax"/><use transform="matrix(0.05555555555555555,0,0,0.05555555555555555,18.833333333333332,0)" xlink:href="#ai"/><use transform="matrix(0.05555555555555555,0,0,0.05555555555555555,29.944444444444443,0)" xlink:href="#aj"/><use transform="matrix(0.05555555555555555,0,0,0.05555555555555555,42.11111111111111,0)" xlink:href="#ao"/><use transform="matrix(0.05555555555555555,0,0,0.05555555555555555,53.222222222222214,0)" xlink:href="#av"/><use transform="matrix(0.05555555555555555,0,0,0.05555555555555555,59.83333333333333,0)" xlink:href="#al"/><use transform="matrix(0.05555555555555555,0,0,0.05555555555555555,70.94444444444444,0)" xlink:href="#ax"/><use transform="matrix(0.05555555555555555,0,0,0.05555555555555555,78.72222222222221,0)" xlink:href="#ax"/><use transform="matrix(0.05555555555555555,0,0,0.05555555555555555,86.49999999999999,0)" xlink:href="#al"/><use transform="matrix(0.05555555555555555,0,0,0.05555555555555555,97.6111111111111,0)" xlink:href="#an"/></g><path d="M15-91v-56l181-69v40L49-119l147 57v40" id="bt"/><path d="M15-148v-39h180v39H15zm0 97v-39h180v39H15" id="bu"/><g id="O"><use transform="matrix(0.05555555555555555,0,0,0.05555555555555555,0,0)" xlink:href="#bt"/><use transform="matrix(0.05555555555555555,0,0,0.05555555555555555,11.666666666666666,0)" xlink:href="#bu"/></g><path d="M182-182c0 78-84 86-111 141h115V0H12c-6-101 99-100 120-180 1-22-12-31-33-32-23 0-32 14-35 34l-49-3c5-45 32-70 84-70 51 0 83 22 83 69" id="bv"/><use transform="matrix(0.05555555555555555,0,0,0.05555555555555555,0,0)" xlink:href="#bv" id="P"/><path d="M24-248c120-7 223 5 221 122C244-46 201 0 124 0H24v-248zM76-40c74 7 117-18 117-86 0-67-45-88-117-82v168" id="bw"/><g id="Q"><use transform="matrix(0.05555555555555555,0,0,0.05555555555555555,0,0)" xlink:href="#bw"/><use transform="matrix(0.05555555555555555,0,0,0.05555555555555555,14.388888888888888,0)" xlink:href="#ai"/><use transform="matrix(0.05555555555555555,0,0,0.05555555555555555,25.5,0)" xlink:href="#br"/><use transform="matrix(0.05555555555555555,0,0,0.05555555555555555,36.611111111111114,0)" xlink:href="#ao"/></g><path d="M15-22v-40l146-57-146-57v-40l181 69v56" id="bx"/><use transform="matrix(0.05555555555555555,0,0,0.05555555555555555,0,0)" xlink:href="#bx" id="R"/><path d="M195-6C206 82 75 100 31 46c-4-6-6-13-8-21l49-6c3 16 16 24 34 25 40 0 42-37 40-79-11 22-30 35-61 35-53 0-70-43-70-97 0-56 18-96 73-97 30 0 46 14 59 34l2-30h47zm-90-29c32 0 41-27 41-63 0-35-9-62-40-62-32 0-39 29-40 63 0 36 9 62 39 62" id="by"/><g id="S"><use transform="matrix(0.05555555555555555,0,0,0.05555555555555555,0,0)" xlink:href="#bq"/><use transform="matrix(0.05555555555555555,0,0,0.05555555555555555,13.333333333333332,0)" xlink:href="#al"/><use transform="matrix(0.05555555555555555,0,0,0.05555555555555555,24.444444444444443,0)" xlink:href="#aj"/><use transform="matrix(0.05555555555555555,0,0,0.05555555555555555,36.61111111111111,0)" xlink:href="#an"/><use transform="matrix(0.05555555555555555,0,0,0.05555555555555555,48.77777777777777,0)" xlink:href="#az"/><use transform="matrix(0.05555555555555555,0,0,0.05555555555555555,54.33333333333333,0)" xlink:href="#aj"/><use transform="matrix(0.05555555555555555,0,0,0.05555555555555555,66.5,0)" xlink:href="#by"/></g><g id="T"><use transform="matrix(0.05555555555555555,0,0,0.05555555555555555,0,0)" xlink:href="#bx"/><use transform="matrix(0.05555555555555555,0,0,0.05555555555555555,11.666666666666666,0)" xlink:href="#bu"/></g><path d="M52 0c1-96 47-148 87-207H15v-41h169v40c-36 62-79 113-81 208H52" id="bz"/><use transform="matrix(0.05555555555555555,0,0,0.05555555555555555,0,0)" xlink:href="#bz" id="U"/><path d="M165-50V0h-47v-50H5v-38l105-160h55v161h33v37h-33zm-47-37l2-116L46-87h72" id="bA"/><use transform="matrix(0.05555555555555555,0,0,0.05555555555555555,0,0)" xlink:href="#bA" id="V"/><g id="W"><use transform="matrix(0.05555555555555555,0,0,0.05555555555555555,0,0)" xlink:href="#ap"/><use transform="matrix(0.05555555555555555,0,0,0.05555555555555555,6.611111111111111,0)" xlink:href="#aw"/></g><path d="M115-159c48 0 72 30 72 78 0 54-30 85-83 85-64 0-91-50-91-122 0-98 58-163 141-120 15 8 21 24 27 44l-47 6c-5-31-48-31-61-4-7 14-11 33-11 60 9-17 28-27 53-27zM102-35c24 0 36-20 36-45s-11-43-37-43c-23 0-36 14-36 38 0 27 11 50 37 50" id="bB"/><use transform="matrix(0.05555555555555555,0,0,0.05555555555555555,0,0)" xlink:href="#bB" id="X"/><g id="Y"><use transform="matrix(0.05555555555555555,0,0,0.05555555555555555,0,0)" xlink:href="#an"/><use transform="matrix(0.05555555555555555,0,0,0.05555555555555555,12.166666666666666,0)" xlink:href="#ai"/><use transform="matrix(0.05555555555555555,0,0,0.05555555555555555,23.27777777777778,0)" xlink:href="#br"/><use transform="matrix(0.05555555555555555,0,0,0.05555555555555555,34.388888888888886,0)" xlink:href="#ao"/></g><path d="M128-127c34 4 56 21 59 58 7 91-148 94-172 28-4-9-6-17-7-26l51-5c1 24 16 35 40 36 23 0 39-12 38-36-1-31-31-36-65-34v-40c32 2 59-3 59-33 0-20-13-33-34-33s-33 13-35 32l-50-3c6-44 37-68 86-68 50 0 83 20 83 66 0 35-22 52-53 58" id="bC"/><use transform="matrix(0.05555555555555555,0,0,0.05555555555555555,0,0)" xlink:href="#bC" id="Z"/><path d="M24 0v-248h52V0H24" id="bD"/><g id="aa"><use transform="matrix(0.05555555555555555,0,0,0.05555555555555555,0,0)" xlink:href="#bD"/><use transform="matrix(0.05555555555555555,0,0,0.05555555555555555,5.555555555555555,0)" xlink:href="#by"/><use transform="matrix(0.05555555555555555,0,0,0.05555555555555555,17.72222222222222,0)" xlink:href="#aj"/><use transform="matrix(0.05555555555555555,0,0,0.05555555555555555,29.888888888888886,0)" xlink:href="#aw"/><use transform="matrix(0.05555555555555555,0,0,0.05555555555555555,42.05555555555555,0)" xlink:href="#ax"/><use transform="matrix(0.05555555555555555,0,0,0.05555555555555555,49.83333333333333,0)" xlink:href="#al"/></g><g id="ab"><use transform="matrix(0.05555555555555555,0,0,0.05555555555555555,0,0)" xlink:href="#aC"/><use transform="matrix(0.05555555555555555,0,0,0.05555555555555555,12.166666666666666,0)" xlink:href="#ax"/><use transform="matrix(0.05555555555555555,0,0,0.05555555555555555,19.944444444444443,0)" xlink:href="#az"/><use transform="matrix(0.05555555555555555,0,0,0.05555555555555555,25.5,0)" xlink:href="#aw"/><use transform="matrix(0.05555555555555555,0,0,0.05555555555555555,37.666666666666664,0)" xlink:href="#ax"/></g><path d="M24 0v-54h51V0H24" id="bE"/><g id="ac"><use transform="matrix(0.05555555555555555,0,0,0.05555555555555555,0,0)" xlink:href="#ao"/><use transform="matrix(0.05555555555555555,0,0,0.05555555555555555,11.11111111111111,0)" xlink:href="#ap"/><use transform="matrix(0.05555555555555555,0,0,0.05555555555555555,17.72222222222222,0)" xlink:href="#ai"/><use transform="matrix(0.05555555555555555,0,0,0.05555555555555555,28.833333333333332,0)" xlink:href="#ap"/><use transform="matrix(0.05555555555555555,0,0,0.05555555555555555,35.44444444444444,0)" xlink:href="#aq"/><use transform="matrix(0.05555555555555555,0,0,0.05555555555555555,47.61111111111111,0)" xlink:href="#ao"/><use transform="matrix(0.05555555555555555,0,0,0.05555555555555555,58.72222222222222,0)" xlink:href="#bE"/></g><path d="M147 0L96-86 75-71V0H25v-261h50v150l67-79h53l-66 74L201 0h-54" id="bF"/><g id="ad"><use transform="matrix(0.05555555555555555,0,0,0.05555555555555555,0,0)" xlink:href="#ah"/><use transform="matrix(0.05555555555555555,0,0,0.05555555555555555,14.388888888888888,0)" xlink:href="#aB"/><use transform="matrix(0.05555555555555555,0,0,0.05555555555555555,26.555555555555554,0)" xlink:href="#al"/><use transform="matrix(0.05555555555555555,0,0,0.05555555555555555,37.666666666666664,0)" xlink:href="#ak"/><use transform="matrix(0.05555555555555555,0,0,0.05555555555555555,48.77777777777777,0)" xlink:href="#bF"/></g><g id="ae"><use transform="matrix(0.05555555555555555,0,0,0.05555555555555555,0,0)" xlink:href="#ao"/><use transform="matrix(0.05555555555555555,0,0,0.05555555555555555,11.11111111111111,0)" xlink:href="#ap"/><use transform="matrix(0.05555555555555555,0,0,0.05555555555555555,17.72222222222222,0)" xlink:href="#ai"/><use transform="matrix(0.05555555555555555,0,0,0.05555555555555555,28.833333333333332,0)" xlink:href="#ap"/><use transform="matrix(0.05555555555555555,0,0,0.05555555555555555,35.44444444444444,0)" xlink:href="#aq"/><use transform="matrix(0.05555555555555555,0,0,0.05555555555555555,47.61111111111111,0)" xlink:href="#ao"/></g><g id="af"><use transform="matrix(0.05555555555555555,0,0,0.05555555555555555,0,0)" xlink:href="#aC"/><use transform="matrix(0.05555555555555555,0,0,0.05555555555555555,12.166666666666666,0)" xlink:href="#ax"/><use transform="matrix(0.05555555555555555,0,0,0.05555555555555555,19.944444444444443,0)" xlink:href="#az"/><use transform="matrix(0.05555555555555555,0,0,0.05555555555555555,25.5,0)" xlink:href="#aw"/><use transform="matrix(0.05555555555555555,0,0,0.05555555555555555,37.666666666666664,0)" xlink:href="#ax"/></g><g id="ag"><use transform="matrix(0.05555555555555555,0,0,0.05555555555555555,0,0)" xlink:href="#ap"/><use transform="matrix(0.05555555555555555,0,0,0.05555555555555555,6.611111111111111,0)" xlink:href="#aB"/><use transform="matrix(0.05555555555555555,0,0,0.05555555555555555,18.77777777777778,0)" xlink:href="#ai"/><use transform="matrix(0.05555555555555555,0,0,0.05555555555555555,29.888888888888886,0)" xlink:href="#ap"/><use transform="matrix(0.05555555555555555,0,0,0.05555555555555555,36.5,0)" xlink:href="#bE"/></g></defs></g></svg>