<svg xmlns="http://www.w3.org/2000/svg" xmlns:xlink="http://www.w3.org/1999/xlink" xmlns:lucid="lucid" width="968" height="986.88"><g transform="translate(-164 4)" lucid:page-tab-id="kp1JgD0YzRmb5"><path d="M0 0h1360v1760H0z" fill-opacity="0"/><path d="M184 16h928v48H184z" stroke="#000" stroke-width="1.33" fill="#fff"/><use xlink:href="#a" transform="matrix(1,0,0,1,204,16) translate(4.7734375 35.3671875)"/><use xlink:href="#b" transform="matrix(1,0,0,1,204,16) translate(376.3984375 35.3671875)"/><use xlink:href="#c" transform="matrix(1,0,0,1,204,16) translate(479.5390625 35.3671875)"/><use xlink:href="#d" transform="matrix(1,0,0,1,204,16) translate(586.2265625 35.3671875)"/><use xlink:href="#e" transform="matrix(1,0,0,1,204,16) translate(641.3671875 35.3671875)"/><use xlink:href="#f" transform="matrix(1,0,0,1,204,16) translate(740.9921875 35.3671875)"/><path d="M741.76 83.2c2.12-1.77 5.56-1.77 7.68 0l105.92 88.1c2.12 1.77 2.12 4.63 0 6.4l-105.92 88.1c-2.12 1.77-5.56 1.77-7.68 0l-105.92-88.1c-2.12-1.77-2.12-4.63 0-6.4z" stroke="#000" stroke-width="2" fill="#c1e4f7"/><use xlink:href="#g" transform="matrix(1,0,0,1,632,80.00000000000001) translate(89.82716049382717 55.38888888888888)"/><use xlink:href="#h" transform="matrix(1,0,0,1,632,80.00000000000001) translate(65.1358024691358 76.72222222222221)"/><use xlink:href="#i" transform="matrix(1,0,0,1,632,80.00000000000001) translate(117.48148148148147 76.72222222222221)"/><use xlink:href="#j" transform="matrix(1,0,0,1,632,80.00000000000001) translate(156.98765432098764 76.72222222222221)"/><use xlink:href="#k" transform="matrix(1,0,0,1,632,80.00000000000001) translate(20.81481481481478 98.05555555555556)"/><use xlink:href="#h" transform="matrix(1,0,0,1,632,80.00000000000001) translate(70.54320987654322 119.38888888888889)"/><use xlink:href="#l" transform="matrix(1,0,0,1,632,80.00000000000001) translate(122.88888888888889 119.38888888888889)"/><use xlink:href="#m" transform="matrix(1,0,0,1,632,80.00000000000001) translate(86.34567901234567 140.72222222222223)"/><use xlink:href="#n" transform="matrix(1,0,0,1,632,80.00000000000001) translate(112.02469135802468 140.72222222222223)"/><path d="M556 350.63c2.2-1.66 5.8-1.66 8 0l128 96c2.2 1.65 2.2 4.34 0 6l-128 96c-2.2 1.65-5.8 1.65-8 0l-128-96c-2.2-1.66-2.2-4.35 0-6z" stroke="#000" stroke-width="2" fill="#c1e4f7"/><use xlink:href="#o" transform="matrix(1,0,0,1,424,347.625) translate(94.09876543209876 52.22222222222221)"/><use xlink:href="#p" transform="matrix(1,0,0,1,424,347.625) translate(58.543209876543216 73.55555555555554)"/><use xlink:href="#q" transform="matrix(1,0,0,1,424,347.625) translate(166.0493827160494 73.55555555555554)"/><use xlink:href="#r" transform="matrix(1,0,0,1,424,347.625) translate(65.28395061728395 94.88888888888889)"/><use xlink:href="#s" transform="matrix(1,0,0,1,424,347.625) translate(104.79012345679013 94.88888888888889)"/><use xlink:href="#t" transform="matrix(1,0,0,1,424,347.625) translate(115.60493827160494 94.88888888888889)"/><use xlink:href="#u" transform="matrix(1,0,0,1,424,347.625) translate(155.95061728395063 94.88888888888889)"/><use xlink:href="#r" transform="matrix(1,0,0,1,424,347.625) translate(88.59259259259258 116.22222222222221)"/><use xlink:href="#v" transform="matrix(1,0,0,1,424,347.625) translate(128.09876543209876 116.22222222222221)"/><use xlink:href="#w" transform="matrix(1,0,0,1,424,347.625) translate(153.77777777777777 116.22222222222221)"/><use xlink:href="#x" transform="matrix(1,0,0,1,424,347.625) translate(92.66666666666666 137.55555555555554)"/><use xlink:href="#y" transform="matrix(1,0,0,1,424,347.625) translate(119.23456790123456 137.55555555555554)"/><use xlink:href="#z" transform="matrix(1,0,0,1,424,347.625) translate(143.92592592592592 137.55555555555554)"/><use xlink:href="#A" transform="matrix(1,0,0,1,424,347.625) translate(104.41975308641975 158.8888888888889)"/><path d="M380.16 633.46c2.12-1.77 5.56-1.77 7.68 0l96.32 80.58c2.12 1.77 2.12 4.65 0 6.42l-96.32 80.58c-2.12 1.77-5.56 1.77-7.68 0l-96.32-80.58c-2.12-1.77-2.12-4.65 0-6.42z" stroke="#000" stroke-width="2" fill="#c1e4f7"/><use xlink:href="#B" transform="matrix(1,0,0,1,280,630.25) translate(56.8395061728395 79.88888888888889)"/><use xlink:href="#C" transform="matrix(1,0,0,1,280,630.25) translate(140.79012345679013 79.88888888888889)"/><use xlink:href="#D" transform="matrix(1,0,0,1,280,630.25) translate(30.024691358024683 101.22222222222223)"/><use xlink:href="#E" transform="matrix(1,0,0,1,280,630.25) translate(111.90123456790124 101.22222222222223)"/><path d="M1042.67 347.63c34.6 0 62.66 25.07 62.66 56 0 30.92-28.05 56-62.66 56h-188c-34.6 0-62.67-25.08-62.67-56 0-30.93 28.06-56 62.67-56z" stroke="#000" stroke-width="2" fill="#ffeca9"/><use xlink:href="#F" transform="matrix(1,0,0,1,823.333333333338,347.625) translate(9.697530864197518 27.55555555555555)"/><use xlink:href="#G" transform="matrix(1,0,0,1,823.333333333338,347.625) translate(92.0679012345679 27.55555555555555)"/><use xlink:href="#H" transform="matrix(1,0,0,1,823.333333333338,347.625) translate(136.41358024691357 27.55555555555555)"/><use xlink:href="#I" transform="matrix(1,0,0,1,823.333333333338,347.625) translate(193.00617283950618 27.55555555555555)"/><use xlink:href="#J" transform="matrix(1,0,0,1,823.333333333338,347.625) translate(221.5493827160494 27.55555555555555)"/><use xlink:href="#K" transform="matrix(1,0,0,1,823.333333333338,347.625) translate(5.351851851851848 48.888888888888886)"/><use xlink:href="#L" transform="matrix(1,0,0,1,823.333333333338,347.625) translate(82.24074074074076 48.888888888888886)"/><use xlink:href="#M" transform="matrix(1,0,0,1,823.333333333338,347.625) translate(108.80864197530866 48.888888888888886)"/><use xlink:href="#N" transform="matrix(1,0,0,1,823.333333333338,347.625) translate(130.43827160493828 48.888888888888886)"/><use xlink:href="#O" transform="matrix(1,0,0,1,823.333333333338,347.625) translate(166.88271604938274 48.888888888888886)"/><use xlink:href="#P" transform="matrix(1,0,0,1,823.333333333338,347.625) translate(6.3148148148148096 70.22222222222223)"/><use xlink:href="#Q" transform="matrix(1,0,0,1,823.333333333338,347.625) translate(43.697530864197525 70.22222222222223)"/><use xlink:href="#R" transform="matrix(1,0,0,1,823.333333333338,347.625) translate(99.40123456790123 91.55555555555556)"/><path d="M845.33 630.25c40.5 0 73.34 29.55 73.34 66s-32.84 66-73.34 66h-220c-40.5 0-73.33-29.55-73.33-66s32.83-66 73.33-66z" stroke="#000" stroke-width="2" fill="#ffeca9"/><g><use xlink:href="#S" transform="matrix(1,0,0,1,588.6666666666666,630.25) translate(29.749999999999986 26.39999999999999)"/><use xlink:href="#T" transform="matrix(1,0,0,1,588.6666666666666,630.25) translate(113.14999999999999 26.39999999999999)"/><use xlink:href="#U" transform="matrix(1,0,0,1,588.6666666666666,630.25) translate(158.05 26.39999999999999)"/><use xlink:href="#V" transform="matrix(1,0,0,1,588.6666666666666,630.25) translate(215.35000000000002 26.39999999999999)"/><use xlink:href="#W" transform="matrix(1,0,0,1,588.6666666666666,630.25) translate(244.25 26.39999999999999)"/><use xlink:href="#X" transform="matrix(1,0,0,1,588.6666666666666,630.25) translate(5.924999999999983 47.99999999999999)"/><use xlink:href="#Y" transform="matrix(1,0,0,1,588.6666666666666,630.25) translate(83.77499999999998 47.99999999999999)"/><use xlink:href="#Z" transform="matrix(1,0,0,1,588.6666666666666,630.25) translate(110.67499999999998 47.99999999999999)"/><use xlink:href="#aa" transform="matrix(1,0,0,1,588.6666666666666,630.25) translate(132.575 47.99999999999999)"/><use xlink:href="#ab" transform="matrix(1,0,0,1,588.6666666666666,630.25) translate(165.42499999999998 47.99999999999999)"/><use xlink:href="#ac" transform="matrix(1,0,0,1,588.6666666666666,630.25) translate(208.325 47.99999999999999)"/><use xlink:href="#ad" transform="matrix(1,0,0,1,588.6666666666666,630.25) translate(26.32500000000003 69.6)"/><use xlink:href="#ae" transform="matrix(1,0,0,1,588.6666666666666,630.25) translate(64.17500000000004 69.6)"/><use xlink:href="#af" transform="matrix(1,0,0,1,588.6666666666666,630.25) translate(17.80000000000001 91.20000000000002)"/><use xlink:href="#ag" transform="matrix(1,0,0,1,588.6666666666666,630.25) translate(85.65 91.20000000000002)"/><use xlink:href="#ah" transform="matrix(1,0,0,1,588.6666666666666,630.25) translate(123.05000000000001 91.20000000000002)"/><use xlink:href="#ai" transform="matrix(1,0,0,1,588.6666666666666,630.25) translate(182.9 91.20000000000002)"/><use xlink:href="#aj" transform="matrix(1,0,0,1,588.6666666666666,630.25) translate(252.3 91.20000000000002)"/><use xlink:href="#ak" transform="matrix(1,0,0,1,588.6666666666666,630.25) translate(13.825000000000017 112.80000000000001)"/><use xlink:href="#al" transform="matrix(1,0,0,1,588.6666666666666,630.25) translate(222.32499999999996 112.80000000000001)"/></g><path d="M312 882.88c17.67 0 32 17.9 32 40s-14.33 40-32 40h-96c-17.67 0-32-17.9-32-40s14.33-40 32-40z" stroke="#000" stroke-width="2" fill="#ffeca9"/><g><use xlink:href="#am" transform="matrix(1,0,0,1,200,882.875) translate(31.224999999999994 43.6)"/></g><path d="M552 882.88c17.67 0 32 17.9 32 40s-14.33 40-32 40h-96c-17.67 0-32-17.9-32-40s14.33-40 32-40z" stroke="#000" stroke-width="2" fill="#ffeca9"/><g><use xlink:href="#an" transform="matrix(1,0,0,1,440,882.875) translate(26.049999999999997 22)"/><use xlink:href="#ao" transform="matrix(1,0,0,1,440,882.875) translate(35.45 43.6)"/><use xlink:href="#ap" transform="matrix(1,0,0,1,440,882.875) translate(23.549999999999997 65.2)"/></g><path d="M943.83 306.37l3.4 1.1 2.13 2.92.3 1.9v15.82h-2v-15.67l-.2-1.27-1.46-2-2.5-.8h-79.37v-2zm-196.4-1.67l2 1.46 1.25.2h79.45v2h-79.6l-1.9-.3-2.92-2.12-1.1-3.4V269.1h2v33.1z"/><path d="M746.6 269.14h-2v-1.16l.8.16 1.2-.17zM948.67 343.4l-4.64-14.28h9.27z"/><path d="M948.67 346.62l-6.02-18.5h12.03zm-3.26-16.5l3.27 10.03 3.26-10.03z"/><g><use xlink:href="#aq" transform="matrix(1,0,0,1,830.1333333333449,291.3678404576891) translate(0 21.333333333333336)"/></g><path d="M631.06 309.24h-65.9l-2.5.82-1.46 2-.2 1.26v16.55h-2v-16.7l.3-1.9 2.13-2.9 3.4-1.13h66.23zm115.54-5.84l-1.1 3.4-2.92 2.14-1.9.3h-66.14v-2h65.98l1.26-.2 2-1.46.82-2.5V269.1h2z"/><path d="M746.6 269.14h-2v-1.16l.8.16 1.2-.17zM560 345.14l-4.64-14.27h9.28z"/><path d="M560 348.37l-6-18.5h12zm-3.26-16.5L560 341.9l3.26-10.03z"/><g><use xlink:href="#ar" transform="matrix(1,0,0,1,631.0592592592592,292.24122337546197) translate(0 21.333333333333336)"/></g><path d="M730.5 589.06l3.4 1.12 2.13 2.9.3 1.9v15.77h-2v-15.6l-.2-1.27-1.46-2-2.5-.82h-65.5v-2zM561.8 587.4l2 1.46 1.26.2h65.6v2H564.9l-1.9-.3-2.9-2.13-1.12-3.4v-33.35h2v33.02z"/><path d="M561 551.9h-2v-1.17l1 .15 1-.15zM735.33 626l-4.63-14.25h9.27z"/><path d="M735.33 629.25l-6-18.5h12.02zm-3.26-16.5l3.26 10.03 3.26-10.03z"/><g><use xlink:href="#aq" transform="matrix(1,0,0,1,630.6666666666666,574.0641170822271) translate(0 21.333333333333336)"/></g><path d="M463.6 592h-74.44l-2.5.83-1.46 2-.2 1.26v16.55h-2v-16.72l.3-1.9 2.13-2.9 3.4-1.12h74.76zm97.4-5.83l-1.1 3.4-2.92 2.14-1.9.3h-48v-2h47.84l1.26-.2 2-1.45.82-2.5v-33.97h2z"/><path d="M561 551.9h-2v-1.17l1 .15 1-.15zM384 627.9l-4.64-14.25h9.28z"/><path d="M384 631.15l-6-18.5h12zm-3.26-16.5l3.26 10.03 3.26-10.03z"/><g><use xlink:href="#ar" transform="matrix(1,0,0,1,463.5925925925926,575.0126825756216) translate(0 21.333333333333336)"/></g><path d="M499.16 841.6l3.4 1.13 2.13 2.9.3 1.9v15.84h-2V847.7l-.2-1.27-1.46-2-2.5-.82H475.5v-2zm-113.34-1.65l2 1.46 1.26.2h52.42v2h-52.58l-1.9-.3-2.9-2.12-1.12-3.4v-33.43h2v33.1z"/><path d="M385 804.38h-2v-1.16l.8.16 1.2-.17zM504 878.64l-4.64-14.27h9.28z"/><path d="M504 881.87l-6-18.5h12zm-3.26-16.5L504 875.4l3.26-10.03z"/><g><use xlink:href="#aq" transform="matrix(1,0,0,1,441.50214136872046,826.6139345066055) translate(0 21.333333333333336)"/></g><path d="M300.44 843.6H265.5l-2.48.83-1.46 2-.2 1.26v15.67h-2v-15.84l.3-1.9 2.12-2.9 3.4-1.12h35.26zm84.56-5.83l-1.1 3.4-2.92 2.14-1.9.3h-35.16v-2h35l1.26-.2 2-1.45.82-2.5v-33.1h2z"/><path d="M385 804.38h-2v-1.16l.8.16 1.2-.17zM260.35 878.64l-4.63-14.27H265z"/><path d="M260.35 881.87l-6-18.5h12zm-3.26-16.5l3.25 10.03 3.26-10.03z"/><g><use xlink:href="#ar" transform="matrix(1,0,0,1,300.4356937658647,826.6139345066055) translate(0 21.333333333333336)"/></g><defs><path d="M381-711c0 302 128 499 414 499 178 0 302-89 371-268l257 97c-99 251-300 400-628 403C342 25 84-257 84-711c0-457 243-719 698-719 334 0 540 138 623 392l-260 71c-40-136-182-233-357-231-284 2-407 189-407 487" id="as"/><path d="M972 12c-145 0-202-73-217-205h-6C670-51 552 20 393 20 187 20 58-100 60-306c3-242 172-345 427-346l233-4c5-152-16-266-158-264-112 2-147 49-160 153l-293-14c38-217 204-321 465-321 262 0 427 133 427 388v394c3 101 7 160 89 160 21 0 42-2 62-6v152c-57 15-108 27-180 26zM483-176c165 0 247-140 237-325-89 1-231-1-283 23-55 25-84 70-84 150 0 94 44 152 130 152" id="at"/><path d="M768-1103c243 0 356 161 356 416V0H844v-607c0-190-64-285-193-285-148 1-227 151-227 312V0H143c-4-356 9-741-8-1082h268c4 18 14 191 13 215h4c67-145 160-236 348-236" id="au"/><path d="M1079-360C1041-124 864 17 594 20 261 23 80-197 80-535c0-344 180-567 518-567 257 0 435 142 473 361l-283 14c-16-106-75-182-196-182-145 0-217 121-217 363 0 249 74 374 221 374 120 0 188-82 201-201" id="av"/><path d="M375-487c-1 185 60 319 225 319 99 0 162-43 188-129l265 23C976-78 821 20 586 20 247 19 80-194 80-546c0-344 176-559 510-556 341 3 483 247 479 615H375zm422-176c-8-153-68-262-211-262-144 0-206 112-209 262h420" id="aw"/><path d="M143 0v-1484h281V0H143" id="ax"/><path d="M500-1102c166 0 271 75 329 191-3-189-2-382-2-573h281v1248c0 67 3 145 8 236H844c-6-25-16-141-15-176h-4C764-45 649 20 479 20c-126 0-223-50-292-148S84-363 84-540c0-321 122-562 416-562zm331 555c0-200-54-364-231-364-75 0-131 30-168 91s-55 155-55 280c0 245 74 368 221 368 74 0 131-33 172-98s61-157 61-277" id="ay"/><path d="M20 41l291-1525h238L263 41H20" id="az"/><path d="M647-1409c461-3 750 240 746 694-4 440-251 715-686 715H137v-1409h510zm35 1181c265 1 414-208 414-487 0-298-161-467-455-466H432v953h250" id="aA"/><path d="M143-1277v-207h281v207H143zM143 0v-1082h281V0H143" id="aB"/><path d="M573-916c-112 0-200 14-200 111 0 88 73 97 168 120 199 47 392 70 479 217 24 40 35 90 35 152 0 237-220 338-484 336-282-2-439-78-499-290l247-37c36 115 92 141 252 141 130 0 226-17 226-124 0-35-14-62-43-82s-79-38-148-52c-159-31-266-61-321-88-100-50-170-123-170-263 0-232 201-328 458-328 245 0 416 95 457 292l-249 26c-21-98-82-131-208-131" id="aC"/><path d="M627-1102c355 0 544 203 544 560 0 345-207 562-550 562C283 20 80-201 80-542c0-343 204-560 547-560zM375-542c0 208 60 370 243 370 173 0 259-123 259-370 0-129-21-222-63-280s-103-87-183-87c-171 0-256 122-256 367" id="aD"/><path d="M440-330c0 98 31 152 123 154 22 0 53-5 94-14v174C588 7 509 18 420 18c-170-1-258-95-258-272v-638H25v-190h151l88-254h176v254h205v190H440v562" id="aE"/><path d="M483 20c-243 0-356-160-356-415v-687h281v607c0 190 64 285 192 285 148-1 227-151 227-312v-580h281c4 356-9 741 8 1082H848c-8-96-12-168-12-215h-5C765-71 670 20 483 20" id="aF"/><g id="a"><use transform="matrix(0.015625,0,0,0.015625,0,0)" xlink:href="#as"/><use transform="matrix(0.015625,0,0,0.015625,23.109375,0)" xlink:href="#at"/><use transform="matrix(0.015625,0,0,0.015625,40.90625,0)" xlink:href="#au"/><use transform="matrix(0.015625,0,0,0.015625,60.453125,0)" xlink:href="#av"/><use transform="matrix(0.015625,0,0,0.015625,78.25,0)" xlink:href="#aw"/><use transform="matrix(0.015625,0,0,0.015625,96.046875,0)" xlink:href="#ax"/><use transform="matrix(0.015625,0,0,0.015625,104.9375,0)" xlink:href="#ax"/><use transform="matrix(0.015625,0,0,0.015625,113.828125,0)" xlink:href="#aw"/><use transform="matrix(0.015625,0,0,0.015625,131.625,0)" xlink:href="#ay"/><use transform="matrix(0.015625,0,0,0.015625,151.171875,0)" xlink:href="#az"/><use transform="matrix(0.015625,0,0,0.015625,160.0625,0)" xlink:href="#aA"/><use transform="matrix(0.015625,0,0,0.015625,183.171875,0)" xlink:href="#aB"/><use transform="matrix(0.015625,0,0,0.015625,192.0625,0)" xlink:href="#aC"/><use transform="matrix(0.015625,0,0,0.015625,209.859375,0)" xlink:href="#av"/><use transform="matrix(0.015625,0,0,0.015625,227.65625,0)" xlink:href="#aD"/><use transform="matrix(0.015625,0,0,0.015625,247.203125,0)" xlink:href="#au"/><use transform="matrix(0.015625,0,0,0.015625,266.75,0)" xlink:href="#aE"/><use transform="matrix(0.015625,0,0,0.015625,277.40625,0)" xlink:href="#aB"/><use transform="matrix(0.015625,0,0,0.015625,286.296875,0)" xlink:href="#au"/><use transform="matrix(0.015625,0,0,0.015625,305.84375,0)" xlink:href="#aF"/><use transform="matrix(0.015625,0,0,0.015625,325.390625,0)" xlink:href="#aw"/><use transform="matrix(0.015625,0,0,0.015625,343.1875,0)" xlink:href="#ay"/></g><g id="b"><use transform="matrix(0.015625,0,0,0.015625,0,0)" xlink:href="#aC"/><use transform="matrix(0.015625,0,0,0.015625,17.796875,0)" xlink:href="#aE"/><use transform="matrix(0.015625,0,0,0.015625,28.453125,0)" xlink:href="#at"/><use transform="matrix(0.015625,0,0,0.015625,46.25,0)" xlink:href="#aE"/><use transform="matrix(0.015625,0,0,0.015625,56.90625,0)" xlink:href="#aF"/><use transform="matrix(0.015625,0,0,0.015625,76.453125,0)" xlink:href="#aC"/></g><path d="M770-1102c286 0 397 243 397 557 0 320-120 562-415 565-165 2-272-80-330-194 1 32-7 151-14 174H135c5-62 8-144 8-247v-1237h281c-1 197 2 398-4 590h4c63-139 179-208 346-208zM420-536c0 197 55 364 231 364 149 0 223-124 223-373 0-123-18-214-54-273s-92-89-167-89c-179 0-233 167-233 371" id="aG"/><path d="M604-1296c-97 2-130 31-131 129v85h213v190H473V0H193v-892H35v-190h158v-113c1-202 109-289 315-289 53 0 112 5 178 16v181c-27-6-55-9-82-9" id="aH"/><path d="M646-868c-165 0-222 146-222 337V0H143c-4-356 8-741-8-1082h268c4 15 14 211 13 231h4c48-123 63-177 149-229 44-27 147-31 197-8v235c-45-10-85-15-120-15" id="aI"/><g id="c"><use transform="matrix(0.015625,0,0,0.015625,0,0)" xlink:href="#aG"/><use transform="matrix(0.015625,0,0,0.015625,19.546875,0)" xlink:href="#aw"/><use transform="matrix(0.015625,0,0,0.015625,37.34375,0)" xlink:href="#aH"/><use transform="matrix(0.015625,0,0,0.015625,48,0)" xlink:href="#aD"/><use transform="matrix(0.015625,0,0,0.015625,67.546875,0)" xlink:href="#aI"/><use transform="matrix(0.015625,0,0,0.015625,80,0)" xlink:href="#aw"/></g><path d="M129 0v-209h349v-961L140-959v-221l353-229h266v1200h323V0H129" id="aJ"/><g id="d"><use transform="matrix(0.015625,0,0,0.015625,0,0)" xlink:href="#aJ"/><use transform="matrix(0.015625,0,0,0.015625,17.796875,0)" xlink:href="#aC"/><use transform="matrix(0.015625,0,0,0.015625,35.59375,0)" xlink:href="#aE"/></g><path d="M565-227c69-251 97-315 271-855h294L731 0H395L8-1082h297c96 314 168 517 260 855" id="aK"/><g id="e"><use transform="matrix(0.015625,0,0,0.015625,0,0)" xlink:href="#at"/><use transform="matrix(0.015625,0,0,0.015625,17.796875,0)" xlink:href="#av"/><use transform="matrix(0.015625,0,0,0.015625,35.59375,0)" xlink:href="#aE"/><use transform="matrix(0.015625,0,0,0.015625,46.25,0)" xlink:href="#aB"/><use transform="matrix(0.015625,0,0,0.015625,55.140625,0)" xlink:href="#aK"/><use transform="matrix(0.015625,0,0,0.015625,72.9375,0)" xlink:href="#aw"/></g><path d="M651-891c-148 1-227 151-227 312V0H143v-1484h281c-2 207 6 422-8 618h4c67-145 160-236 348-236 243 0 356 161 356 416V0H844v-606c0-190-64-285-193-285" id="aL"/><path d="M408-1082c8 36 12 125 12 176h4c63-133 179-199 346-199 126 0 224 48 293 145s104 235 104 414c0 322-121 566-415 566-162 0-274-77-328-192h-6c11 149 4 424 6 597H143V-833c0-102-3-185-8-249h273zm243 172c-175 0-232 173-231 372 0 117 20 206 60 270s96 96 169 96c150 0 225-125 225-374 0-243-74-364-223-364" id="aM"/><path d="M1251-892c-133 0-192 146-192 299V0H780v-607c0-190-55-285-164-285-132 0-192 159-192 312V0H143c-4-356 9-741-8-1082h268c4 18 14 191 13 215h4c61-142 139-236 315-236 165 0 266 79 301 236h6c67-147 139-236 328-236 229 0 324 171 324 416V0h-279v-607c0-190-55-285-164-285" id="aN"/><g id="f"><use transform="matrix(0.015625,0,0,0.015625,0,0)" xlink:href="#aC"/><use transform="matrix(0.015625,0,0,0.015625,17.796875,0)" xlink:href="#aL"/><use transform="matrix(0.015625,0,0,0.015625,37.34375,0)" xlink:href="#aB"/><use transform="matrix(0.015625,0,0,0.015625,46.234375,0)" xlink:href="#aM"/><use transform="matrix(0.015625,0,0,0.015625,65.78125,0)" xlink:href="#aN"/><use transform="matrix(0.015625,0,0,0.015625,94.234375,0)" xlink:href="#aw"/><use transform="matrix(0.015625,0,0,0.015625,112.03125,0)" xlink:href="#au"/><use transform="matrix(0.015625,0,0,0.015625,131.578125,0)" xlink:href="#aE"/></g><path d="M205 0l-28-72H64L36 0H1l101-248h38L239 0h-34zm-38-99l-47-123c-12 45-31 82-46 123h93" id="aO"/><path d="M96-169c-40 0-48 33-48 73s9 75 48 75c24 0 41-14 43-38l32 2c-6 37-31 61-74 61-59 0-76-41-82-99-10-93 101-131 147-64 4 7 5 14 7 22l-32 3c-4-21-16-35-41-35" id="aP"/><path d="M59-47c-2 24 18 29 38 22v24C64 9 27 4 27-40v-127H5v-23h24l9-43h21v43h35v23H59v120" id="aQ"/><path d="M24-231v-30h32v30H24zM24 0v-190h32V0H24" id="aR"/><path d="M108 0H70L1-190h34L89-25l56-165h34" id="aS"/><path d="M100-194c63 0 86 42 84 106H49c0 40 14 67 53 68 26 1 43-12 49-29l28 8c-11 28-37 45-77 45C44 4 14-33 15-96c1-61 26-98 85-98zm52 81c6-60-76-77-97-28-3 7-6 17-6 28h103" id="aT"/><g id="g"><use transform="matrix(0.04938271604938272,0,0,0.04938271604938272,0,0)" xlink:href="#aO"/><use transform="matrix(0.04938271604938272,0,0,0.04938271604938272,11.851851851851853,0)" xlink:href="#aP"/><use transform="matrix(0.04938271604938272,0,0,0.04938271604938272,20.74074074074074,0)" xlink:href="#aQ"/><use transform="matrix(0.04938271604938272,0,0,0.04938271604938272,25.679012345679016,0)" xlink:href="#aR"/><use transform="matrix(0.04938271604938272,0,0,0.04938271604938272,29.58024691358025,0)" xlink:href="#aS"/><use transform="matrix(0.04938271604938272,0,0,0.04938271604938272,38.46913580246914,0)" xlink:href="#aT"/></g><path d="M135-143c-3-34-86-38-87 0 15 53 115 12 119 90S17 21 10-45l28-5c4 36 97 45 98 0-10-56-113-15-118-90-4-57 82-63 122-42 12 7 21 19 24 35" id="aU"/><path d="M141-36C126-15 110 5 73 4 37 3 15-17 15-53c-1-64 63-63 125-63 3-35-9-54-41-54-24 1-41 7-42 31l-33-3c5-37 33-52 76-52 45 0 72 20 72 64v82c-1 20 7 32 28 27v20c-31 9-61-2-59-35zM48-53c0 20 12 33 32 33 41-3 63-29 60-74-43 2-92-5-92 41" id="aV"/><path d="M84 4C-5 8 30-112 23-190h32v120c0 31 7 50 39 49 72-2 45-101 50-169h31l1 190h-30c-1-10 1-25-2-33-11 22-28 36-60 37" id="aW"/><g id="h"><use transform="matrix(0.04938271604938272,0,0,0.04938271604938272,0,0)" xlink:href="#aU"/><use transform="matrix(0.04938271604938272,0,0,0.04938271604938272,8.88888888888889,0)" xlink:href="#aQ"/><use transform="matrix(0.04938271604938272,0,0,0.04938271604938272,13.827160493827162,0)" xlink:href="#aV"/><use transform="matrix(0.04938271604938272,0,0,0.04938271604938272,23.703703703703706,0)" xlink:href="#aQ"/><use transform="matrix(0.04938271604938272,0,0,0.04938271604938272,28.641975308641978,0)" xlink:href="#aW"/><use transform="matrix(0.04938271604938272,0,0,0.04938271604938272,38.51851851851852,0)" xlink:href="#aU"/></g><path d="M85-194c31 0 48 13 60 33l-1-100h32l1 261h-30c-2-10 0-23-3-31C134-8 116 4 85 4 32 4 16-35 15-94c0-66 23-100 70-100zm9 24c-40 0-46 34-46 75 0 40 6 74 45 74 42 0 51-32 51-76 0-42-9-74-50-73" id="aX"/><g id="i"><use transform="matrix(0.04938271604938272,0,0,0.04938271604938272,0,0)" xlink:href="#aX"/><use transform="matrix(0.04938271604938272,0,0,0.04938271604938272,9.876543209876544,0)" xlink:href="#aV"/><use transform="matrix(0.04938271604938272,0,0,0.04938271604938272,19.75308641975309,0)" xlink:href="#aQ"/><use transform="matrix(0.04938271604938272,0,0,0.04938271604938272,24.69135802469136,0)" xlink:href="#aT"/></g><path d="M16-82v-28h88v28H16" id="aY"/><use transform="matrix(0.04938271604938272,0,0,0.04938271604938272,0,0)" xlink:href="#aY" id="j"/><path d="M212-179c-10-28-35-45-73-45-59 0-87 40-87 99 0 60 29 101 89 101 43 0 62-24 78-52l27 14C228-24 195 4 139 4 59 4 22-46 18-125c-6-104 99-153 187-111 19 9 31 26 39 46" id="aZ"/><path d="M117-194c89-4 53 116 60 194h-32v-121c0-31-8-49-39-48C34-167 62-67 57 0H25l-1-190h30c1 10-1 24 2 32 11-22 29-35 61-36" id="ba"/><path d="M24 0v-261h32V0H24" id="bb"/><path d="M0 4l72-265h28L28 4H0" id="bc"/><path d="M30-248c118-7 216 8 213 122C240-48 200 0 122 0H30v-248zM63-27c89 8 146-16 146-99s-60-101-146-95v194" id="bd"/><path d="M100-194c62-1 85 37 85 99 1 63-27 99-86 99S16-35 15-95c0-66 28-99 85-99zM99-20c44 1 53-31 53-75 0-43-8-75-51-75s-53 32-53 75 10 74 51 75" id="be"/><g id="k"><use transform="matrix(0.04938271604938272,0,0,0.04938271604938272,0,0)" xlink:href="#aZ"/><use transform="matrix(0.04938271604938272,0,0,0.04938271604938272,12.790123456790125,0)" xlink:href="#aV"/><use transform="matrix(0.04938271604938272,0,0,0.04938271604938272,22.66666666666667,0)" xlink:href="#ba"/><use transform="matrix(0.04938271604938272,0,0,0.04938271604938272,32.543209876543216,0)" xlink:href="#aP"/><use transform="matrix(0.04938271604938272,0,0,0.04938271604938272,41.4320987654321,0)" xlink:href="#aT"/><use transform="matrix(0.04938271604938272,0,0,0.04938271604938272,51.308641975308646,0)" xlink:href="#bb"/><use transform="matrix(0.04938271604938272,0,0,0.04938271604938272,55.20987654320988,0)" xlink:href="#bb"/><use transform="matrix(0.04938271604938272,0,0,0.04938271604938272,59.111111111111114,0)" xlink:href="#aT"/><use transform="matrix(0.04938271604938272,0,0,0.04938271604938272,68.98765432098766,0)" xlink:href="#aX"/><use transform="matrix(0.04938271604938272,0,0,0.04938271604938272,78.8641975308642,0)" xlink:href="#bc"/><use transform="matrix(0.04938271604938272,0,0,0.04938271604938272,83.80246913580248,0)" xlink:href="#bd"/><use transform="matrix(0.04938271604938272,0,0,0.04938271604938272,96.59259259259261,0)" xlink:href="#aR"/><use transform="matrix(0.04938271604938272,0,0,0.04938271604938272,100.49382716049385,0)" xlink:href="#aU"/><use transform="matrix(0.04938271604938272,0,0,0.04938271604938272,109.38271604938272,0)" xlink:href="#aP"/><use transform="matrix(0.04938271604938272,0,0,0.04938271604938272,118.27160493827161,0)" xlink:href="#be"/><use transform="matrix(0.04938271604938272,0,0,0.04938271604938272,128.14814814814815,0)" xlink:href="#ba"/><use transform="matrix(0.04938271604938272,0,0,0.04938271604938272,138.0246913580247,0)" xlink:href="#aQ"/><use transform="matrix(0.04938271604938272,0,0,0.04938271604938272,142.962962962963,0)" xlink:href="#aR"/><use transform="matrix(0.04938271604938272,0,0,0.04938271604938272,146.86419753086423,0)" xlink:href="#ba"/><use transform="matrix(0.04938271604938272,0,0,0.04938271604938272,156.74074074074076,0)" xlink:href="#aW"/><use transform="matrix(0.04938271604938272,0,0,0.04938271604938272,166.61728395061732,0)" xlink:href="#aT"/><use transform="matrix(0.04938271604938272,0,0,0.04938271604938272,176.49382716049388,0)" xlink:href="#aX"/></g><g id="l"><use transform="matrix(0.04938271604938272,0,0,0.04938271604938272,0,0)" xlink:href="#aX"/><use transform="matrix(0.04938271604938272,0,0,0.04938271604938272,9.876543209876544,0)" xlink:href="#aV"/><use transform="matrix(0.04938271604938272,0,0,0.04938271604938272,19.75308641975309,0)" xlink:href="#aQ"/><use transform="matrix(0.04938271604938272,0,0,0.04938271604938272,24.69135802469136,0)" xlink:href="#aT"/></g><path d="M18-100v-36l175-74v27L42-118l151 64v27" id="bf"/><path d="M18-150v-26h174v26H18zm0 90v-26h174v26H18" id="bg"/><g id="m"><use transform="matrix(0.04938271604938272,0,0,0.04938271604938272,0,0)" xlink:href="#bf"/><use transform="matrix(0.04938271604938272,0,0,0.04938271604938272,10.370370370370372,0)" xlink:href="#bg"/></g><path d="M110-160c48 1 74 30 74 79 0 53-28 85-80 85-65 0-83-55-86-122-5-90 50-162 133-122 14 7 22 21 27 39l-31 6c-5-40-67-38-82-6-9 19-15 44-15 74 11-20 30-34 60-33zm-7 138c34 0 49-23 49-58s-16-56-50-56c-29 0-50 16-49 49 1 36 15 65 50 65" id="bh"/><path d="M101-251c68 0 85 55 85 127S166 4 100 4C33 4 14-52 14-124c0-73 17-127 87-127zm-1 229c47 0 54-49 54-102s-4-102-53-102c-51 0-55 48-55 102 0 53 5 102 54 102" id="bi"/><path d="M103-251c84 0 111 97 45 133-19 10-37 24-39 52H78c0-63 77-55 77-114 0-30-21-42-52-43-32 0-53 17-56 46l-32-2c7-45 34-72 88-72zM77 0v-35h34V0H77" id="bj"/><g id="n"><use transform="matrix(0.04938271604938272,0,0,0.04938271604938272,0,0)" xlink:href="#bh"/><use transform="matrix(0.04938271604938272,0,0,0.04938271604938272,9.876543209876544,0)" xlink:href="#bi"/><use transform="matrix(0.04938271604938272,0,0,0.04938271604938272,19.75308641975309,0)" xlink:href="#bj"/></g><g id="o"><use transform="matrix(0.04938271604938272,0,0,0.04938271604938272,0,0)" xlink:href="#aZ"/><use transform="matrix(0.04938271604938272,0,0,0.04938271604938272,12.790123456790125,0)" xlink:href="#aV"/><use transform="matrix(0.04938271604938272,0,0,0.04938271604938272,22.66666666666667,0)" xlink:href="#ba"/><use transform="matrix(0.04938271604938272,0,0,0.04938271604938272,32.543209876543216,0)" xlink:href="#aP"/><use transform="matrix(0.04938271604938272,0,0,0.04938271604938272,41.4320987654321,0)" xlink:href="#aT"/><use transform="matrix(0.04938271604938272,0,0,0.04938271604938272,51.308641975308646,0)" xlink:href="#bb"/><use transform="matrix(0.04938271604938272,0,0,0.04938271604938272,55.20987654320988,0)" xlink:href="#bb"/><use transform="matrix(0.04938271604938272,0,0,0.04938271604938272,59.111111111111114,0)" xlink:href="#aT"/><use transform="matrix(0.04938271604938272,0,0,0.04938271604938272,68.98765432098766,0)" xlink:href="#aX"/><use transform="matrix(0.04938271604938272,0,0,0.04938271604938272,78.8641975308642,0)" xlink:href="#bc"/></g><g id="p"><use transform="matrix(0.04938271604938272,0,0,0.04938271604938272,0,0)" xlink:href="#bd"/><use transform="matrix(0.04938271604938272,0,0,0.04938271604938272,12.790123456790125,0)" xlink:href="#aR"/><use transform="matrix(0.04938271604938272,0,0,0.04938271604938272,16.69135802469136,0)" xlink:href="#aU"/><use transform="matrix(0.04938271604938272,0,0,0.04938271604938272,25.58024691358025,0)" xlink:href="#aP"/><use transform="matrix(0.04938271604938272,0,0,0.04938271604938272,34.46913580246914,0)" xlink:href="#be"/><use transform="matrix(0.04938271604938272,0,0,0.04938271604938272,44.345679012345684,0)" xlink:href="#ba"/><use transform="matrix(0.04938271604938272,0,0,0.04938271604938272,54.22222222222223,0)" xlink:href="#aQ"/><use transform="matrix(0.04938271604938272,0,0,0.04938271604938272,59.1604938271605,0)" xlink:href="#aR"/><use transform="matrix(0.04938271604938272,0,0,0.04938271604938272,63.061728395061735,0)" xlink:href="#ba"/><use transform="matrix(0.04938271604938272,0,0,0.04938271604938272,72.93827160493828,0)" xlink:href="#aW"/><use transform="matrix(0.04938271604938272,0,0,0.04938271604938272,82.81481481481482,0)" xlink:href="#aT"/><use transform="matrix(0.04938271604938272,0,0,0.04938271604938272,92.69135802469137,0)" xlink:href="#aX"/></g><g id="q"><use transform="matrix(0.04938271604938272,0,0,0.04938271604938272,0,0)" xlink:href="#aU"/><use transform="matrix(0.04938271604938272,0,0,0.04938271604938272,8.88888888888889,0)" xlink:href="#aQ"/><use transform="matrix(0.04938271604938272,0,0,0.04938271604938272,13.827160493827162,0)" xlink:href="#aV"/><use transform="matrix(0.04938271604938272,0,0,0.04938271604938272,23.703703703703706,0)" xlink:href="#aQ"/><use transform="matrix(0.04938271604938272,0,0,0.04938271604938272,28.641975308641978,0)" xlink:href="#aW"/><use transform="matrix(0.04938271604938272,0,0,0.04938271604938272,38.51851851851852,0)" xlink:href="#aU"/></g><g id="r"><use transform="matrix(0.04938271604938272,0,0,0.04938271604938272,0,0)" xlink:href="#aX"/><use transform="matrix(0.04938271604938272,0,0,0.04938271604938272,9.876543209876544,0)" xlink:href="#aV"/><use transform="matrix(0.04938271604938272,0,0,0.04938271604938272,19.75308641975309,0)" xlink:href="#aQ"/><use transform="matrix(0.04938271604938272,0,0,0.04938271604938272,24.69135802469136,0)" xlink:href="#aT"/></g><use transform="matrix(0.04938271604938272,0,0,0.04938271604938272,0,0)" xlink:href="#aY" id="s"/><path d="M115-194c55 1 70 41 70 98S169 2 115 4C84 4 66-9 55-30l1 105H24l-1-265h31l2 30c10-21 28-34 59-34zm-8 174c40 0 45-34 45-75s-6-73-45-74c-42 0-51 32-51 76 0 43 10 73 51 73" id="bk"/><path d="M114-163C36-179 61-72 57 0H25l-1-190h30c1 12-1 29 2 39 6-27 23-49 58-41v29" id="bl"/><g id="t"><use transform="matrix(0.04938271604938272,0,0,0.04938271604938272,0,0)" xlink:href="#bk"/><use transform="matrix(0.04938271604938272,0,0,0.04938271604938272,9.876543209876544,0)" xlink:href="#bl"/><use transform="matrix(0.04938271604938272,0,0,0.04938271604938272,15.753086419753087,0)" xlink:href="#aR"/><use transform="matrix(0.04938271604938272,0,0,0.04938271604938272,19.654320987654323,0)" xlink:href="#be"/><use transform="matrix(0.04938271604938272,0,0,0.04938271604938272,29.530864197530867,0)" xlink:href="#bl"/></g><path d="M47-170H22l-4-78h33" id="bm"/><g id="u"><use transform="matrix(0.04938271604938272,0,0,0.04938271604938272,0,0)" xlink:href="#aU"/><use transform="matrix(0.04938271604938272,0,0,0.04938271604938272,8.88888888888889,0)" xlink:href="#aQ"/><use transform="matrix(0.04938271604938272,0,0,0.04938271604938272,13.827160493827162,0)" xlink:href="#aV"/><use transform="matrix(0.04938271604938272,0,0,0.04938271604938272,23.703703703703706,0)" xlink:href="#aQ"/><use transform="matrix(0.04938271604938272,0,0,0.04938271604938272,28.641975308641978,0)" xlink:href="#aW"/><use transform="matrix(0.04938271604938272,0,0,0.04938271604938272,38.51851851851852,0)" xlink:href="#aU"/><use transform="matrix(0.04938271604938272,0,0,0.04938271604938272,47.407407407407405,0)" xlink:href="#bm"/></g><g id="v"><use transform="matrix(0.04938271604938272,0,0,0.04938271604938272,0,0)" xlink:href="#bf"/><use transform="matrix(0.04938271604938272,0,0,0.04938271604938272,10.370370370370372,0)" xlink:href="#bg"/></g><g id="w"><use transform="matrix(0.04938271604938272,0,0,0.04938271604938272,0,0)" xlink:href="#bh"/><use transform="matrix(0.04938271604938272,0,0,0.04938271604938272,9.876543209876544,0)" xlink:href="#bi"/><use transform="matrix(0.04938271604938272,0,0,0.04938271604938272,19.75308641975309,0)" xlink:href="#bj"/></g><path d="M87 75C49 33 22-17 22-94c0-76 28-126 65-167h31c-38 41-64 92-64 168S80 34 118 75H87" id="bn"/><g id="x"><use transform="matrix(0.04938271604938272,0,0,0.04938271604938272,0,0)" xlink:href="#bn"/><use transform="matrix(0.04938271604938272,0,0,0.04938271604938272,5.8765432098765435,0)" xlink:href="#be"/><use transform="matrix(0.04938271604938272,0,0,0.04938271604938272,15.753086419753087,0)" xlink:href="#bl"/></g><g id="y"><use transform="matrix(0.04938271604938272,0,0,0.04938271604938272,0,0)" xlink:href="#ba"/><use transform="matrix(0.04938271604938272,0,0,0.04938271604938272,9.876543209876544,0)" xlink:href="#be"/></g><g id="z"><use transform="matrix(0.04938271604938272,0,0,0.04938271604938272,0,0)" xlink:href="#bk"/><use transform="matrix(0.04938271604938272,0,0,0.04938271604938272,9.876543209876544,0)" xlink:href="#bl"/><use transform="matrix(0.04938271604938272,0,0,0.04938271604938272,15.753086419753087,0)" xlink:href="#aR"/><use transform="matrix(0.04938271604938272,0,0,0.04938271604938272,19.654320987654323,0)" xlink:href="#be"/><use transform="matrix(0.04938271604938272,0,0,0.04938271604938272,29.530864197530867,0)" xlink:href="#bl"/></g><path d="M33-261c38 41 65 92 65 168S71 34 33 75H2C39 34 66-17 66-93S39-220 2-261h31" id="bo"/><g id="A"><use transform="matrix(0.04938271604938272,0,0,0.04938271604938272,0,0)" xlink:href="#aU"/><use transform="matrix(0.04938271604938272,0,0,0.04938271604938272,8.88888888888889,0)" xlink:href="#aQ"/><use transform="matrix(0.04938271604938272,0,0,0.04938271604938272,13.827160493827162,0)" xlink:href="#aV"/><use transform="matrix(0.04938271604938272,0,0,0.04938271604938272,23.703703703703706,0)" xlink:href="#aQ"/><use transform="matrix(0.04938271604938272,0,0,0.04938271604938272,28.641975308641978,0)" xlink:href="#aW"/><use transform="matrix(0.04938271604938272,0,0,0.04938271604938272,38.51851851851852,0)" xlink:href="#aU"/><use transform="matrix(0.04938271604938272,0,0,0.04938271604938272,47.407407407407405,0)" xlink:href="#bj"/><use transform="matrix(0.04938271604938272,0,0,0.04938271604938272,57.28395061728394,0)" xlink:href="#bo"/></g><path d="M185-189c-5-48-123-54-124 2 14 75 158 14 163 119 3 78-121 87-175 55-17-10-28-26-33-46l33-7c5 56 141 63 141-1 0-78-155-14-162-118-5-82 145-84 179-34 5 7 8 16 11 25" id="bp"/><path d="M115-194c53 0 69 39 70 98 0 66-23 100-70 100C84 3 66-7 56-30L54 0H23l1-261h32v101c10-23 28-34 59-34zm-8 174c40 0 45-34 45-75 0-40-5-75-45-74-42 0-51 32-51 76 0 43 10 73 51 73" id="bq"/><g id="B"><use transform="matrix(0.04938271604938272,0,0,0.04938271604938272,0,0)" xlink:href="#bp"/><use transform="matrix(0.04938271604938272,0,0,0.04938271604938272,11.851851851851853,0)" xlink:href="#aW"/><use transform="matrix(0.04938271604938272,0,0,0.04938271604938272,21.7283950617284,0)" xlink:href="#bq"/><use transform="matrix(0.04938271604938272,0,0,0.04938271604938272,31.60493827160494,0)" xlink:href="#aU"/><use transform="matrix(0.04938271604938272,0,0,0.04938271604938272,40.49382716049384,0)" xlink:href="#aQ"/><use transform="matrix(0.04938271604938272,0,0,0.04938271604938272,45.43209876543211,0)" xlink:href="#aV"/><use transform="matrix(0.04938271604938272,0,0,0.04938271604938272,55.30864197530866,0)" xlink:href="#aQ"/><use transform="matrix(0.04938271604938272,0,0,0.04938271604938272,60.24691358024693,0)" xlink:href="#aW"/><use transform="matrix(0.04938271604938272,0,0,0.04938271604938272,70.12345679012347,0)" xlink:href="#aU"/></g><use transform="matrix(0.04938271604938272,0,0,0.04938271604938272,0,0)" xlink:href="#bg" id="C"/><path d="M177-190C167-65 218 103 67 71c-23-6-38-20-44-43l32-5c15 47 100 32 89-28v-30C133-14 115 1 83 1 29 1 15-40 15-95c0-56 16-97 71-98 29-1 48 16 59 35 1-10 0-23 2-32h30zM94-22c36 0 50-32 50-73 0-42-14-75-50-75-39 0-46 34-46 75s6 73 46 73" id="br"/><g id="D"><use transform="matrix(0.04938271604938272,0,0,0.04938271604938272,0,0)" xlink:href="#aZ"/><use transform="matrix(0.04938271604938272,0,0,0.04938271604938272,12.790123456790125,0)" xlink:href="#be"/><use transform="matrix(0.04938271604938272,0,0,0.04938271604938272,22.66666666666667,0)" xlink:href="#aS"/><use transform="matrix(0.04938271604938272,0,0,0.04938271604938272,31.555555555555557,0)" xlink:href="#aT"/><use transform="matrix(0.04938271604938272,0,0,0.04938271604938272,41.4320987654321,0)" xlink:href="#bl"/><use transform="matrix(0.04938271604938272,0,0,0.04938271604938272,47.308641975308646,0)" xlink:href="#aV"/><use transform="matrix(0.04938271604938272,0,0,0.04938271604938272,57.18518518518519,0)" xlink:href="#br"/><use transform="matrix(0.04938271604938272,0,0,0.04938271604938272,67.06172839506173,0)" xlink:href="#aT"/></g><g id="E"><use transform="matrix(0.04938271604938272,0,0,0.04938271604938272,0,0)" xlink:href="#bd"/><use transform="matrix(0.04938271604938272,0,0,0.04938271604938272,12.790123456790125,0)" xlink:href="#aT"/><use transform="matrix(0.04938271604938272,0,0,0.04938271604938272,22.66666666666667,0)" xlink:href="#ba"/><use transform="matrix(0.04938271604938272,0,0,0.04938271604938272,32.543209876543216,0)" xlink:href="#aR"/><use transform="matrix(0.04938271604938272,0,0,0.04938271604938272,36.44444444444445,0)" xlink:href="#aT"/><use transform="matrix(0.04938271604938272,0,0,0.04938271604938272,46.320987654320994,0)" xlink:href="#aX"/><use transform="matrix(0.04938271604938272,0,0,0.04938271604938272,56.19753086419754,0)" xlink:href="#bj"/></g><path d="M142-158h-39l-4-90h48zm-75 0H28l-4-90h48" id="bs"/><path d="M240-174c0 40-23 61-54 70L253 0h-59l-57-94H76V0H24v-248c93 4 217-23 216 74zM76-134c48-2 112 12 112-38 0-48-66-32-112-35v73" id="bt"/><path d="M185-48c-13 30-37 53-82 52C43 2 14-33 14-96s30-98 90-98c62 0 83 45 84 108H66c0 31 8 55 39 56 18 0 30-7 34-22zm-45-69c5-46-57-63-70-21-2 6-4 13-4 21h74" id="bu"/><path d="M220-157c-53 9-28 100-34 157h-49v-107c1-27-5-49-29-50C55-147 81-57 75 0H25l-1-190h47c2 12-1 28 3 38 10-53 101-56 108 0 13-22 24-43 59-42 82 1 51 116 57 194h-49v-107c-1-25-5-48-29-50" id="bv"/><path d="M110-194c64 0 96 36 96 99 0 64-35 99-97 99-61 0-95-36-95-99 0-62 34-99 96-99zm-1 164c35 0 45-28 45-65 0-40-10-65-43-65-34 0-45 26-45 65 0 36 10 65 43 65" id="bw"/><path d="M128 0H69L1-190h53L99-40l48-150h52" id="bx"/><g id="F"><use transform="matrix(0.04938271604938272,0,0,0.04938271604938272,0,0)" xlink:href="#bs"/><use transform="matrix(0.04938271604938272,0,0,0.04938271604938272,8.395061728395062,0)" xlink:href="#bt"/><use transform="matrix(0.04938271604938272,0,0,0.04938271604938272,21.185185185185187,0)" xlink:href="#bu"/><use transform="matrix(0.04938271604938272,0,0,0.04938271604938272,31.06172839506173,0)" xlink:href="#bv"/><use transform="matrix(0.04938271604938272,0,0,0.04938271604938272,46.8641975308642,0)" xlink:href="#bw"/><use transform="matrix(0.04938271604938272,0,0,0.04938271604938272,57.67901234567902,0)" xlink:href="#bx"/><use transform="matrix(0.04938271604938272,0,0,0.04938271604938272,67.55555555555557,0)" xlink:href="#bu"/></g><path d="M121-226c-27-7-43 5-38 36h38v33H83V0H34v-157H6v-33h28c-9-59 32-81 87-68v32" id="by"/><path d="M135-150c-39-12-60 13-60 57V0H25l-1-190h47c2 13-1 29 3 40 6-28 27-53 61-41v41" id="bz"/><g id="G"><use transform="matrix(0.04938271604938272,0,0,0.04938271604938272,0,0)" xlink:href="#by"/><use transform="matrix(0.04938271604938272,0,0,0.04938271604938272,5.8765432098765435,0)" xlink:href="#bz"/><use transform="matrix(0.04938271604938272,0,0,0.04938271604938272,12.790123456790125,0)" xlink:href="#bw"/><use transform="matrix(0.04938271604938272,0,0,0.04938271604938272,23.604938271604937,0)" xlink:href="#bv"/></g><path d="M136-208V0H84v-208H4v-40h212v40h-80" id="bA"/><path d="M76-208v77h127v40H76V0H24v-248h183v40H76" id="bB"/><g id="H"><use transform="matrix(0.04938271604938272,0,0,0.04938271604938272,0,0)" xlink:href="#bA"/><use transform="matrix(0.04938271604938272,0,0,0.04938271604938272,10.814814814814815,0)" xlink:href="#bA"/><use transform="matrix(0.04938271604938272,0,0,0.04938271604938272,21.62962962962963,0)" xlink:href="#bB"/><use transform="matrix(0.04938271604938272,0,0,0.04938271604938272,32.44444444444444,0)" xlink:href="#bB"/><use transform="matrix(0.04938271604938272,0,0,0.04938271604938272,43.25925925925926,0)" xlink:href="#bs"/></g><g id="I"><use transform="matrix(0.04938271604938272,0,0,0.04938271604938272,0,0)" xlink:href="#by"/><use transform="matrix(0.04938271604938272,0,0,0.04938271604938272,5.8765432098765435,0)" xlink:href="#bw"/><use transform="matrix(0.04938271604938272,0,0,0.04938271604938272,16.691358024691358,0)" xlink:href="#bz"/></g><path d="M133-34C117-15 103 5 69 4 32 3 11-16 11-54c-1-60 55-63 116-61 1-26-3-47-28-47-18 1-26 9-28 27l-52-2c7-38 36-58 82-57s74 22 75 68l1 82c-1 14 12 18 25 15v27c-30 8-71 5-69-32zm-48 3c29 0 43-24 42-57-32 0-66-3-65 30 0 17 8 27 23 27" id="bC"/><path d="M25 0v-261h50V0H25" id="bD"/><g id="J"><use transform="matrix(0.04938271604938272,0,0,0.04938271604938272,0,0)" xlink:href="#bC"/><use transform="matrix(0.04938271604938272,0,0,0.04938271604938272,9.876543209876544,0)" xlink:href="#bD"/><use transform="matrix(0.04938271604938272,0,0,0.04938271604938272,14.814814814814817,0)" xlink:href="#bD"/></g><path d="M137-138c1-29-70-34-71-4 15 46 118 7 119 86 1 83-164 76-172 9l43-7c4 19 20 25 44 25 33 8 57-30 24-41C81-84 22-81 20-136c-2-80 154-74 161-7" id="bE"/><path d="M115-3C79 11 28 4 28-45v-112H4v-33h27l15-45h31v45h36v33H77v99c-1 23 16 31 38 25v30" id="bF"/><path d="M85 4C-2 5 27-109 22-190h50c7 57-23 150 33 157 60-5 35-97 40-157h50l1 190h-47c-2-12 1-28-3-38-12 25-28 42-61 42" id="bG"/><g id="K"><use transform="matrix(0.04938271604938272,0,0,0.04938271604938272,0,0)" xlink:href="#bE"/><use transform="matrix(0.04938271604938272,0,0,0.04938271604938272,9.876543209876544,0)" xlink:href="#bF"/><use transform="matrix(0.04938271604938272,0,0,0.04938271604938272,15.753086419753087,0)" xlink:href="#bC"/><use transform="matrix(0.04938271604938272,0,0,0.04938271604938272,25.629629629629633,0)" xlink:href="#bF"/><use transform="matrix(0.04938271604938272,0,0,0.04938271604938272,31.506172839506174,0)" xlink:href="#bG"/><use transform="matrix(0.04938271604938272,0,0,0.04938271604938272,42.320987654320994,0)" xlink:href="#bE"/><use transform="matrix(0.04938271604938272,0,0,0.04938271604938272,52.19753086419754,0)" xlink:href="#bu"/><use transform="matrix(0.04938271604938272,0,0,0.04938271604938272,62.074074074074076,0)" xlink:href="#bE"/></g><path d="M135-194c53 0 70 44 70 98 0 56-19 98-73 100-31 1-45-17-59-34 3 33 2 69 2 105H25l-1-265h48c2 10 0 23 3 31 11-24 29-35 60-35zM114-30c33 0 39-31 40-66 0-38-9-64-40-64-56 0-55 130 0 130" id="bH"/><g id="L"><use transform="matrix(0.04938271604938272,0,0,0.04938271604938272,0,0)" xlink:href="#bG"/><use transform="matrix(0.04938271604938272,0,0,0.04938271604938272,10.814814814814815,0)" xlink:href="#bH"/></g><g id="M"><use transform="matrix(0.04938271604938272,0,0,0.04938271604938272,0,0)" xlink:href="#bF"/><use transform="matrix(0.04938271604938272,0,0,0.04938271604938272,5.8765432098765435,0)" xlink:href="#bw"/></g><path d="M135-194c87-1 58 113 63 194h-50c-7-57 23-157-34-157-59 0-34 97-39 157H25l-1-190h47c2 12-1 28 3 38 12-26 28-41 61-42" id="bI"/><path d="M88-194c31-1 46 15 58 34l-1-101h50l1 261h-48c-2-10 0-23-3-31C134-8 116 4 84 4 32 4 16-41 15-95c0-56 19-97 73-99zm17 164c33 0 40-30 41-66 1-37-9-64-41-64s-38 30-39 65c0 43 13 65 39 65" id="bJ"/><g id="N"><use transform="matrix(0.04938271604938272,0,0,0.04938271604938272,0,0)" xlink:href="#bC"/><use transform="matrix(0.04938271604938272,0,0,0.04938271604938272,9.876543209876544,0)" xlink:href="#bI"/><use transform="matrix(0.04938271604938272,0,0,0.04938271604938272,20.69135802469136,0)" xlink:href="#bJ"/></g><path d="M25-224v-37h50v37H25zM25 0v-190h50V0H25" id="bK"/><path d="M190-63c-7 42-38 67-86 67-59 0-84-38-90-98-12-110 154-137 174-36l-49 2c-2-19-15-32-35-32-30 0-35 28-38 64-6 74 65 87 74 30" id="bL"/><path d="M195-6C206 82 75 100 31 46c-4-6-6-13-8-21l49-6c3 16 16 24 34 25 40 0 42-37 40-79-11 22-30 35-61 35-53 0-70-43-70-97 0-56 18-96 73-97 30 0 46 14 59 34l2-30h47zm-90-29c32 0 41-27 41-63 0-35-9-62-40-62-32 0-39 29-40 63 0 36 9 62 39 62" id="bM"/><g id="O"><use transform="matrix(0.04938271604938272,0,0,0.04938271604938272,0,0)" xlink:href="#bK"/><use transform="matrix(0.04938271604938272,0,0,0.04938271604938272,4.938271604938272,0)" xlink:href="#bI"/><use transform="matrix(0.04938271604938272,0,0,0.04938271604938272,15.753086419753087,0)" xlink:href="#bL"/><use transform="matrix(0.04938271604938272,0,0,0.04938271604938272,25.629629629629633,0)" xlink:href="#bD"/><use transform="matrix(0.04938271604938272,0,0,0.04938271604938272,30.567901234567906,0)" xlink:href="#bG"/><use transform="matrix(0.04938271604938272,0,0,0.04938271604938272,41.38271604938272,0)" xlink:href="#bJ"/><use transform="matrix(0.04938271604938272,0,0,0.04938271604938272,52.19753086419754,0)" xlink:href="#bK"/><use transform="matrix(0.04938271604938272,0,0,0.04938271604938272,57.135802469135804,0)" xlink:href="#bI"/><use transform="matrix(0.04938271604938272,0,0,0.04938271604938272,67.95061728395062,0)" xlink:href="#bM"/></g><path d="M114-157C55-157 80-60 75 0H25v-261h50l-1 109c12-26 28-41 61-42 86-1 58 113 63 194h-50c-7-57 23-157-34-157" id="bN"/><g id="P"><use transform="matrix(0.04938271604938272,0,0,0.04938271604938272,0,0)" xlink:href="#bF"/><use transform="matrix(0.04938271604938272,0,0,0.04938271604938272,5.8765432098765435,0)" xlink:href="#bN"/><use transform="matrix(0.04938271604938272,0,0,0.04938271604938272,16.691358024691358,0)" xlink:href="#bC"/><use transform="matrix(0.04938271604938272,0,0,0.04938271604938272,26.567901234567902,0)" xlink:href="#bF"/></g><path d="M67-125c0 53 21 87 73 88 37 1 54-22 65-47l45 17C233-25 199 4 140 4 58 4 20-42 15-125 8-235 124-281 211-232c18 10 29 29 36 50l-46 12c-8-25-30-41-62-41-52 0-71 34-72 86" id="bO"/><path d="M4 7l51-268h42L46 7H4" id="bP"/><path d="M24-248c120-7 223 5 221 122C244-46 201 0 124 0H24v-248zM76-40c74 7 117-18 117-86 0-67-45-88-117-82v168" id="bQ"/><g id="Q"><use transform="matrix(0.04938271604938272,0,0,0.04938271604938272,0,0)" xlink:href="#bO"/><use transform="matrix(0.04938271604938272,0,0,0.04938271604938272,12.790123456790125,0)" xlink:href="#bC"/><use transform="matrix(0.04938271604938272,0,0,0.04938271604938272,22.66666666666667,0)" xlink:href="#bI"/><use transform="matrix(0.04938271604938272,0,0,0.04938271604938272,33.48148148148149,0)" xlink:href="#bL"/><use transform="matrix(0.04938271604938272,0,0,0.04938271604938272,43.35802469135803,0)" xlink:href="#bu"/><use transform="matrix(0.04938271604938272,0,0,0.04938271604938272,53.23456790123457,0)" xlink:href="#bD"/><use transform="matrix(0.04938271604938272,0,0,0.04938271604938272,58.17283950617284,0)" xlink:href="#bD"/><use transform="matrix(0.04938271604938272,0,0,0.04938271604938272,63.111111111111114,0)" xlink:href="#bu"/><use transform="matrix(0.04938271604938272,0,0,0.04938271604938272,72.98765432098767,0)" xlink:href="#bJ"/><use transform="matrix(0.04938271604938272,0,0,0.04938271604938272,83.80246913580248,0)" xlink:href="#bP"/><use transform="matrix(0.04938271604938272,0,0,0.04938271604938272,88.74074074074076,0)" xlink:href="#bQ"/><use transform="matrix(0.04938271604938272,0,0,0.04938271604938272,101.53086419753089,0)" xlink:href="#bK"/><use transform="matrix(0.04938271604938272,0,0,0.04938271604938272,106.46913580246917,0)" xlink:href="#bE"/><use transform="matrix(0.04938271604938272,0,0,0.04938271604938272,116.34567901234571,0)" xlink:href="#bL"/><use transform="matrix(0.04938271604938272,0,0,0.04938271604938272,126.22222222222226,0)" xlink:href="#bw"/><use transform="matrix(0.04938271604938272,0,0,0.04938271604938272,137.03703703703707,0)" xlink:href="#bI"/><use transform="matrix(0.04938271604938272,0,0,0.04938271604938272,147.85185185185188,0)" xlink:href="#bF"/><use transform="matrix(0.04938271604938272,0,0,0.04938271604938272,153.7283950617284,0)" xlink:href="#bK"/><use transform="matrix(0.04938271604938272,0,0,0.04938271604938272,158.66666666666669,0)" xlink:href="#bI"/><use transform="matrix(0.04938271604938272,0,0,0.04938271604938272,169.4814814814815,0)" xlink:href="#bG"/><use transform="matrix(0.04938271604938272,0,0,0.04938271604938272,180.2962962962963,0)" xlink:href="#bu"/><use transform="matrix(0.04938271604938272,0,0,0.04938271604938272,190.17283950617286,0)" xlink:href="#bJ"/></g><g id="R"><use transform="matrix(0.04938271604938272,0,0,0.04938271604938272,0,0)" xlink:href="#bE"/><use transform="matrix(0.04938271604938272,0,0,0.04938271604938272,9.876543209876544,0)" xlink:href="#bF"/><use transform="matrix(0.04938271604938272,0,0,0.04938271604938272,15.753086419753087,0)" xlink:href="#bC"/><use transform="matrix(0.04938271604938272,0,0,0.04938271604938272,25.629629629629633,0)" xlink:href="#bF"/><use transform="matrix(0.04938271604938272,0,0,0.04938271604938272,31.506172839506174,0)" xlink:href="#bG"/><use transform="matrix(0.04938271604938272,0,0,0.04938271604938272,42.320987654320994,0)" xlink:href="#bE"/></g><g id="S"><use transform="matrix(0.05,0,0,0.05,0,0)" xlink:href="#bs"/><use transform="matrix(0.05,0,0,0.05,8.5,0)" xlink:href="#bt"/><use transform="matrix(0.05,0,0,0.05,21.450000000000003,0)" xlink:href="#bu"/><use transform="matrix(0.05,0,0,0.05,31.450000000000003,0)" xlink:href="#bv"/><use transform="matrix(0.05,0,0,0.05,47.45,0)" xlink:href="#bw"/><use transform="matrix(0.05,0,0,0.05,58.400000000000006,0)" xlink:href="#bx"/><use transform="matrix(0.05,0,0,0.05,68.4,0)" xlink:href="#bu"/></g><g id="T"><use transform="matrix(0.05,0,0,0.05,0,0)" xlink:href="#by"/><use transform="matrix(0.05,0,0,0.05,5.95,0)" xlink:href="#bz"/><use transform="matrix(0.05,0,0,0.05,12.949999999999998,0)" xlink:href="#bw"/><use transform="matrix(0.05,0,0,0.05,23.9,0)" xlink:href="#bv"/></g><g id="U"><use transform="matrix(0.05,0,0,0.05,0,0)" xlink:href="#bA"/><use transform="matrix(0.05,0,0,0.05,10.950000000000001,0)" xlink:href="#bA"/><use transform="matrix(0.05,0,0,0.05,21.900000000000002,0)" xlink:href="#bB"/><use transform="matrix(0.05,0,0,0.05,32.85,0)" xlink:href="#bB"/><use transform="matrix(0.05,0,0,0.05,43.800000000000004,0)" xlink:href="#bs"/></g><g id="V"><use transform="matrix(0.05,0,0,0.05,0,0)" xlink:href="#by"/><use transform="matrix(0.05,0,0,0.05,5.95,0)" xlink:href="#bw"/><use transform="matrix(0.05,0,0,0.05,16.900000000000002,0)" xlink:href="#bz"/></g><g id="W"><use transform="matrix(0.05,0,0,0.05,0,0)" xlink:href="#bC"/><use transform="matrix(0.05,0,0,0.05,10,0)" xlink:href="#bD"/><use transform="matrix(0.05,0,0,0.05,15,0)" xlink:href="#bD"/></g><g id="X"><use transform="matrix(0.05,0,0,0.05,0,0)" xlink:href="#bE"/><use transform="matrix(0.05,0,0,0.05,10,0)" xlink:href="#bF"/><use transform="matrix(0.05,0,0,0.05,15.949999999999998,0)" xlink:href="#bC"/><use transform="matrix(0.05,0,0,0.05,25.950000000000003,0)" xlink:href="#bF"/><use transform="matrix(0.05,0,0,0.05,31.899999999999995,0)" xlink:href="#bG"/><use transform="matrix(0.05,0,0,0.05,42.85,0)" xlink:href="#bE"/><use transform="matrix(0.05,0,0,0.05,52.85,0)" xlink:href="#bu"/><use transform="matrix(0.05,0,0,0.05,62.85,0)" xlink:href="#bE"/></g><g id="Y"><use transform="matrix(0.05,0,0,0.05,0,0)" xlink:href="#bG"/><use transform="matrix(0.05,0,0,0.05,10.950000000000001,0)" xlink:href="#bH"/></g><g id="Z"><use transform="matrix(0.05,0,0,0.05,0,0)" xlink:href="#bF"/><use transform="matrix(0.05,0,0,0.05,5.95,0)" xlink:href="#bw"/></g><path d="M135-194c52 0 70 43 70 98 0 56-19 99-73 100-30 1-46-15-58-35L72 0H24l1-261h50v104c11-23 29-37 60-37zM114-30c31 0 40-27 40-66 0-37-7-63-39-63s-41 28-41 65c0 36 8 64 40 64" id="bR"/><g id="aa"><use transform="matrix(0.05,0,0,0.05,0,0)" xlink:href="#bR"/><use transform="matrix(0.05,0,0,0.05,10.950000000000001,0)" xlink:href="#bG"/><use transform="matrix(0.05,0,0,0.05,21.900000000000002,0)" xlink:href="#bF"/></g><path d="M175 0L67-191c6 58 2 128 3 191H24v-248h59L193-55c-6-58-2-129-3-193h46V0h-61" id="bS"/><path d="M140-251c80 0 125 45 125 126S219 4 139 4C58 4 15-44 15-125s44-126 125-126zm-1 214c52 0 73-35 73-88 0-50-21-86-72-86-52 0-73 35-73 86s22 88 72 88" id="bT"/><g id="ab"><use transform="matrix(0.05,0,0,0.05,0,0)" xlink:href="#bS"/><use transform="matrix(0.05,0,0,0.05,12.950000000000001,0)" xlink:href="#bT"/><use transform="matrix(0.05,0,0,0.05,26.950000000000003,0)" xlink:href="#bA"/></g><g id="ac"><use transform="matrix(0.05,0,0,0.05,0,0)" xlink:href="#bK"/><use transform="matrix(0.05,0,0,0.05,5,0)" xlink:href="#bI"/><use transform="matrix(0.05,0,0,0.05,15.950000000000001,0)" xlink:href="#bL"/><use transform="matrix(0.05,0,0,0.05,25.950000000000003,0)" xlink:href="#bD"/><use transform="matrix(0.05,0,0,0.05,30.950000000000003,0)" xlink:href="#bG"/><use transform="matrix(0.05,0,0,0.05,41.900000000000006,0)" xlink:href="#bJ"/><use transform="matrix(0.05,0,0,0.05,52.85,0)" xlink:href="#bK"/><use transform="matrix(0.05,0,0,0.05,57.85,0)" xlink:href="#bI"/><use transform="matrix(0.05,0,0,0.05,68.80000000000001,0)" xlink:href="#bM"/></g><g id="ad"><use transform="matrix(0.05,0,0,0.05,0,0)" xlink:href="#bF"/><use transform="matrix(0.05,0,0,0.05,5.95,0)" xlink:href="#bN"/><use transform="matrix(0.05,0,0,0.05,16.900000000000002,0)" xlink:href="#bC"/><use transform="matrix(0.05,0,0,0.05,26.900000000000002,0)" xlink:href="#bF"/></g><g id="ae"><use transform="matrix(0.05,0,0,0.05,0,0)" xlink:href="#bO"/><use transform="matrix(0.05,0,0,0.05,12.950000000000001,0)" xlink:href="#bC"/><use transform="matrix(0.05,0,0,0.05,22.950000000000003,0)" xlink:href="#bI"/><use transform="matrix(0.05,0,0,0.05,33.900000000000006,0)" xlink:href="#bL"/><use transform="matrix(0.05,0,0,0.05,43.900000000000006,0)" xlink:href="#bu"/><use transform="matrix(0.05,0,0,0.05,53.900000000000006,0)" xlink:href="#bD"/><use transform="matrix(0.05,0,0,0.05,58.900000000000006,0)" xlink:href="#bD"/><use transform="matrix(0.05,0,0,0.05,63.900000000000006,0)" xlink:href="#bu"/><use transform="matrix(0.05,0,0,0.05,73.9,0)" xlink:href="#bJ"/><use transform="matrix(0.05,0,0,0.05,84.85000000000001,0)" xlink:href="#bP"/><use transform="matrix(0.05,0,0,0.05,89.85000000000001,0)" xlink:href="#bQ"/><use transform="matrix(0.05,0,0,0.05,102.80000000000001,0)" xlink:href="#bK"/><use transform="matrix(0.05,0,0,0.05,107.80000000000001,0)" xlink:href="#bE"/><use transform="matrix(0.05,0,0,0.05,117.80000000000001,0)" xlink:href="#bL"/><use transform="matrix(0.05,0,0,0.05,127.80000000000001,0)" xlink:href="#bw"/><use transform="matrix(0.05,0,0,0.05,138.75,0)" xlink:href="#bI"/><use transform="matrix(0.05,0,0,0.05,149.7,0)" xlink:href="#bF"/><use transform="matrix(0.05,0,0,0.05,155.64999999999998,0)" xlink:href="#bK"/><use transform="matrix(0.05,0,0,0.05,160.64999999999998,0)" xlink:href="#bI"/><use transform="matrix(0.05,0,0,0.05,171.59999999999997,0)" xlink:href="#bG"/><use transform="matrix(0.05,0,0,0.05,182.54999999999995,0)" xlink:href="#bu"/><use transform="matrix(0.05,0,0,0.05,192.54999999999995,0)" xlink:href="#bJ"/></g><path d="M24 0v-54h51V0H24" id="bU"/><g id="af"><use transform="matrix(0.05,0,0,0.05,0,0)" xlink:href="#bE"/><use transform="matrix(0.05,0,0,0.05,10,0)" xlink:href="#bF"/><use transform="matrix(0.05,0,0,0.05,15.949999999999998,0)" xlink:href="#bC"/><use transform="matrix(0.05,0,0,0.05,25.950000000000003,0)" xlink:href="#bF"/><use transform="matrix(0.05,0,0,0.05,31.899999999999995,0)" xlink:href="#bG"/><use transform="matrix(0.05,0,0,0.05,42.85,0)" xlink:href="#bE"/><use transform="matrix(0.05,0,0,0.05,52.85,0)" xlink:href="#bU"/></g><g id="ag"><use transform="matrix(0.05,0,0,0.05,0,0)" xlink:href="#bs"/><use transform="matrix(0.05,0,0,0.05,8.5,0)" xlink:href="#bS"/><use transform="matrix(0.05,0,0,0.05,21.450000000000003,0)" xlink:href="#bw"/></g><path d="M169-182c-1-43-94-46-97-3 18 66 151 10 154 114 3 95-165 93-204 36-6-8-10-19-12-30l50-8c3 46 112 56 116 5-17-69-150-10-154-114-4-87 153-88 188-35 5 8 8 18 10 28" id="bV"/><g id="ah"><use transform="matrix(0.05,0,0,0.05,0,0)" xlink:href="#bV"/><use transform="matrix(0.05,0,0,0.05,12,0)" xlink:href="#bF"/><use transform="matrix(0.05,0,0,0.05,17.95,0)" xlink:href="#bC"/><use transform="matrix(0.05,0,0,0.05,27.950000000000003,0)" xlink:href="#bF"/><use transform="matrix(0.05,0,0,0.05,33.9,0)" xlink:href="#bG"/><use transform="matrix(0.05,0,0,0.05,44.85,0)" xlink:href="#bE"/></g><path d="M123 10C108 53 80 86 19 72V37c35 8 53-11 59-39L3-190h52l48 148c12-52 28-100 44-148h51" id="bW"/><g id="ai"><use transform="matrix(0.05,0,0,0.05,0,0)" xlink:href="#bO"/><use transform="matrix(0.05,0,0,0.05,12.950000000000001,0)" xlink:href="#bD"/><use transform="matrix(0.05,0,0,0.05,17.950000000000003,0)" xlink:href="#bC"/><use transform="matrix(0.05,0,0,0.05,27.950000000000003,0)" xlink:href="#bz"/><use transform="matrix(0.05,0,0,0.05,34.95,0)" xlink:href="#bK"/><use transform="matrix(0.05,0,0,0.05,39.95,0)" xlink:href="#bF"/><use transform="matrix(0.05,0,0,0.05,45.900000000000006,0)" xlink:href="#bW"/><use transform="matrix(0.05,0,0,0.05,55.900000000000006,0)" xlink:href="#bs"/></g><g id="aj"><use transform="matrix(0.05,0,0,0.05,0,0)" xlink:href="#by"/><use transform="matrix(0.05,0,0,0.05,5.95,0)" xlink:href="#bw"/><use transform="matrix(0.05,0,0,0.05,16.900000000000002,0)" xlink:href="#bz"/></g><g id="ak"><use transform="matrix(0.05,0,0,0.05,0,0)" xlink:href="#bO"/><use transform="matrix(0.05,0,0,0.05,12.950000000000001,0)" xlink:href="#bC"/><use transform="matrix(0.05,0,0,0.05,22.950000000000003,0)" xlink:href="#bI"/><use transform="matrix(0.05,0,0,0.05,33.900000000000006,0)" xlink:href="#bL"/><use transform="matrix(0.05,0,0,0.05,43.900000000000006,0)" xlink:href="#bu"/><use transform="matrix(0.05,0,0,0.05,53.900000000000006,0)" xlink:href="#bD"/><use transform="matrix(0.05,0,0,0.05,58.900000000000006,0)" xlink:href="#bD"/><use transform="matrix(0.05,0,0,0.05,63.900000000000006,0)" xlink:href="#bu"/><use transform="matrix(0.05,0,0,0.05,73.9,0)" xlink:href="#bJ"/><use transform="matrix(0.05,0,0,0.05,84.85000000000001,0)" xlink:href="#bP"/><use transform="matrix(0.05,0,0,0.05,89.85000000000001,0)" xlink:href="#bQ"/><use transform="matrix(0.05,0,0,0.05,102.80000000000001,0)" xlink:href="#bK"/><use transform="matrix(0.05,0,0,0.05,107.80000000000001,0)" xlink:href="#bE"/><use transform="matrix(0.05,0,0,0.05,117.80000000000001,0)" xlink:href="#bL"/><use transform="matrix(0.05,0,0,0.05,127.80000000000001,0)" xlink:href="#bw"/><use transform="matrix(0.05,0,0,0.05,138.75,0)" xlink:href="#bI"/><use transform="matrix(0.05,0,0,0.05,149.7,0)" xlink:href="#bF"/><use transform="matrix(0.05,0,0,0.05,155.64999999999998,0)" xlink:href="#bK"/><use transform="matrix(0.05,0,0,0.05,160.64999999999998,0)" xlink:href="#bI"/><use transform="matrix(0.05,0,0,0.05,171.59999999999997,0)" xlink:href="#bG"/><use transform="matrix(0.05,0,0,0.05,182.54999999999995,0)" xlink:href="#bu"/><use transform="matrix(0.05,0,0,0.05,192.54999999999995,0)" xlink:href="#bJ"/></g><g id="al"><use transform="matrix(0.05,0,0,0.05,0,0)" xlink:href="#bE"/><use transform="matrix(0.05,0,0,0.05,10,0)" xlink:href="#bF"/><use transform="matrix(0.05,0,0,0.05,15.949999999999998,0)" xlink:href="#bC"/><use transform="matrix(0.05,0,0,0.05,25.950000000000003,0)" xlink:href="#bF"/><use transform="matrix(0.05,0,0,0.05,31.899999999999995,0)" xlink:href="#bG"/><use transform="matrix(0.05,0,0,0.05,42.85,0)" xlink:href="#bE"/><use transform="matrix(0.05,0,0,0.05,52.85,0)" xlink:href="#bU"/></g><path d="M182-130c37 4 62 22 62 59C244 23 116-4 24 0v-248c84 5 203-23 205 63 0 31-19 50-47 55zM76-148c40-3 101 13 101-30 0-44-60-28-101-31v61zm0 110c48-3 116 14 116-37 0-48-69-32-116-35v72" id="bX"/><path d="M147 0H94L2-248h55l64 206c17-72 42-137 63-206h54" id="bY"/><path d="M24-248c93 1 206-16 204 79-1 75-69 88-152 82V0H24v-248zm52 121c47 0 100 7 100-41 0-47-54-39-100-39v80" id="bZ"/><path d="M199 0l-22-63H83L61 0H9l90-248h61L250 0h-51zm-33-102l-36-108c-10 38-24 72-36 108h72" id="ca"/><g id="am"><use transform="matrix(0.05,0,0,0.05,0,0)" xlink:href="#bs"/><use transform="matrix(0.05,0,0,0.05,8.5,0)" xlink:href="#bX"/><use transform="matrix(0.05,0,0,0.05,21.450000000000003,0)" xlink:href="#bY"/><use transform="matrix(0.05,0,0,0.05,33.45,0)" xlink:href="#bZ"/><use transform="matrix(0.05,0,0,0.05,44.1,0)" xlink:href="#ca"/><use transform="matrix(0.05,0,0,0.05,57.050000000000004,0)" xlink:href="#bs"/></g><g id="an"><use transform="matrix(0.05,0,0,0.05,0,0)" xlink:href="#bZ"/><use transform="matrix(0.05,0,0,0.05,12,0)" xlink:href="#bz"/><use transform="matrix(0.05,0,0,0.05,19,0)" xlink:href="#bu"/><use transform="matrix(0.05,0,0,0.05,29,0)" xlink:href="#bx"/><use transform="matrix(0.05,0,0,0.05,39,0)" xlink:href="#bK"/><use transform="matrix(0.05,0,0,0.05,44,0)" xlink:href="#bw"/><use transform="matrix(0.05,0,0,0.05,54.95,0)" xlink:href="#bG"/><use transform="matrix(0.05,0,0,0.05,65.9,0)" xlink:href="#bE"/></g><path d="M62-158H24l-5-90h48" id="cb"/><g id="ao"><use transform="matrix(0.05,0,0,0.05,0,0)" xlink:href="#bE"/><use transform="matrix(0.05,0,0,0.05,10,0)" xlink:href="#bF"/><use transform="matrix(0.05,0,0,0.05,15.949999999999998,0)" xlink:href="#bC"/><use transform="matrix(0.05,0,0,0.05,25.950000000000003,0)" xlink:href="#bF"/><use transform="matrix(0.05,0,0,0.05,31.899999999999995,0)" xlink:href="#bG"/><use transform="matrix(0.05,0,0,0.05,42.85,0)" xlink:href="#bE"/><use transform="matrix(0.05,0,0,0.05,52.85,0)" xlink:href="#cb"/></g><g id="ap"><use transform="matrix(0.05,0,0,0.05,0,0)" xlink:href="#bN"/><use transform="matrix(0.05,0,0,0.05,10.950000000000001,0)" xlink:href="#bK"/><use transform="matrix(0.05,0,0,0.05,15.950000000000001,0)" xlink:href="#bu"/><use transform="matrix(0.05,0,0,0.05,25.950000000000003,0)" xlink:href="#bz"/><use transform="matrix(0.05,0,0,0.05,32.95,0)" xlink:href="#bC"/><use transform="matrix(0.05,0,0,0.05,42.95,0)" xlink:href="#bz"/><use transform="matrix(0.05,0,0,0.05,49.95,0)" xlink:href="#bL"/><use transform="matrix(0.05,0,0,0.05,59.95,0)" xlink:href="#bN"/><use transform="matrix(0.05,0,0,0.05,70.9,0)" xlink:href="#bW"/></g><path d="M190 0L58-211 59 0H30v-248h39L202-35l-2-213h31V0h-41" id="cc"/><g id="aq"><use transform="matrix(0.07407407407407408,0,0,0.07407407407407408,0,0)" xlink:href="#cc"/><use transform="matrix(0.07407407407407408,0,0,0.07407407407407408,19.185185185185187,0)" xlink:href="#be"/></g><path d="M137-103V0h-34v-103L8-248h37l75 118 75-118h37" id="cd"/><g id="ar"><use transform="matrix(0.07407407407407408,0,0,0.07407407407407408,0,0)" xlink:href="#cd"/><use transform="matrix(0.07407407407407408,0,0,0.07407407407407408,15.333333333333334,0)" xlink:href="#aT"/><use transform="matrix(0.07407407407407408,0,0,0.07407407407407408,30.148148148148152,0)" xlink:href="#aU"/></g></defs></g></svg>